<?xml version="1.0" encoding="UTF-8"?>
<!DOCTYPE svg PUBLIC "-//W3C//DTD SVG 1.1//EN" "http://www.w3.org/Graphics/SVG/1.1/DTD/svg11.dtd">
<svg version="1.1" xmlns="http://www.w3.org/2000/svg" xmlns:xlink="http://www.w3.org/1999/xlink" x="0" y="0" width="541.509" height="115.616" viewBox="0, 0, 541.509, 115.616">
  <g id="Layer_1" transform="translate(-27.362, -292.435)">
    <path d="M61.81,313.766 Q62.785,312.9 62.893,313.658 Q63.109,314.091 63.975,314.632 Q64.95,315.173 64.95,315.606 Q64.95,315.931 65.599,316.797 Q66.249,317.555 66.249,317.717 Q66.249,317.88 66.682,317.988 Q67.115,318.096 67.115,318.529 Q67.115,318.962 67.331,318.962 Q67.548,318.962 68.36,319.666 Q69.172,320.369 69.172,320.586 Q69.172,320.911 69.496,320.911 Q70.146,320.911 71.229,322.426 Q71.553,323.076 72.636,322.968 Q73.61,322.859 74.043,322.535 Q74.476,322.102 80.106,321.993 Q86.818,321.993 87.359,321.344 Q87.576,321.019 89.741,321.019 Q93.313,321.019 93.313,321.56 Q93.313,321.669 93.8,321.723 Q94.288,321.777 94.775,321.669 Q95.262,321.56 95.37,321.452 Q95.478,321.127 97.319,321.127 Q98.293,321.127 98.618,321.073 Q98.943,321.019 99.159,320.911 Q99.376,320.803 99.592,320.478 Q100.025,319.936 100.133,319.503 Q100.35,319.179 100.783,318.962 Q101.324,318.746 101.324,318.421 Q101.324,318.096 101.866,317.338 Q102.407,316.689 102.515,315.498 Q102.623,314.307 103.165,313.982 Q103.706,313.658 104.572,313.874 Q105.33,314.091 105.33,314.361 Q105.33,314.632 106.304,315.498 Q107.278,316.364 107.387,317.122 Q107.495,317.771 108.036,317.934 Q108.578,318.096 108.686,318.529 Q108.794,318.962 109.119,319.07 Q109.444,319.179 109.389,320.153 Q109.335,321.127 109.065,321.127 Q108.794,321.127 108.794,321.398 Q108.794,321.669 108.253,322.156 Q107.712,322.643 107.387,323.401 Q107.062,324.267 106.845,324.267 Q106.629,324.267 106.629,324.483 Q106.629,325.133 105.113,326.215 Q104.68,326.54 104.897,327.298 Q105.222,327.948 105.384,333.523 Q105.546,339.098 105.763,339.315 Q105.979,339.423 106.196,340.668 Q106.412,341.913 106.304,342.346 Q106.196,342.779 106.521,344.24 Q106.845,345.702 107.116,345.864 Q107.387,346.027 107.495,348.95 Q107.603,353.063 108.902,353.388 Q109.335,353.496 109.444,354.795 Q109.552,356.095 109.877,356.311 Q110.093,356.419 110.256,356.906 Q110.418,357.394 110.526,357.989 Q110.634,358.585 110.526,359.018 Q110.526,359.667 110.743,360.479 Q110.959,361.291 111.284,361.291 Q111.392,361.291 111.555,362.265 Q111.717,363.24 112.042,363.348 Q112.367,363.456 112.583,363.889 Q112.691,364.43 113.016,364.43 Q113.341,364.43 113.503,365.242 Q113.666,366.054 114.207,366.487 Q114.64,366.704 114.64,367.029 Q114.64,367.353 115.073,367.462 Q115.506,367.57 115.506,368.003 Q115.506,368.328 116.047,369.086 Q117.022,370.276 117.455,372.441 Q117.671,373.524 117.942,373.632 Q118.213,373.741 118.213,374.065 Q118.213,374.39 119.349,374.39 Q120.486,374.39 121.352,373.632 Q122.218,372.983 122.759,372.766 Q123.409,372.658 124.058,371.467 Q124.6,370.276 124.6,370.006 Q124.6,369.735 125.141,369.464 Q125.682,369.194 125.682,368.977 Q125.682,368.761 126.224,368.598 Q126.765,368.436 127.414,368.328 Q128.064,368.219 128.28,368.328 Q128.714,368.436 128.659,369.302 Q128.605,370.168 128.172,370.385 Q127.739,370.601 127.739,370.926 Q127.739,371.251 127.306,371.467 Q126.765,371.9 126.657,372.658 Q126.548,373.416 126.115,373.957 Q125.682,374.498 125.682,374.823 Q125.682,375.148 125.358,375.581 Q125.033,376.014 124.924,377.746 Q124.816,379.37 124.6,380.669 Q124.383,381.643 124.491,383.592 Q124.6,385.541 124.221,385.649 Q123.842,385.757 123.68,386.515 Q123.517,387.273 122.868,387.598 Q122.218,387.922 122.218,388.031 Q122.218,388.247 121.514,388.518 Q120.811,388.788 120.269,388.788 Q119.62,388.788 118.97,388.139 Q118.213,387.489 117.888,387.489 Q117.671,387.489 117.563,387.165 Q117.455,386.84 117.13,386.84 Q116.589,386.84 116.589,385.541 Q116.589,384.999 116.047,384.675 Q115.506,384.242 115.506,383.809 Q115.614,383.159 115.452,382.997 Q115.29,382.834 114.532,382.618 Q113.666,382.401 113.449,381.86 Q113.341,381.21 112.745,380.723 Q112.15,380.236 112.15,379.965 Q112.15,379.695 111.934,379.695 Q111.717,379.695 111.717,378.72 Q111.717,377.746 111.176,377.53 Q110.634,377.205 110.634,376.447 L110.743,375.581 L112.15,375.581 Q113.449,375.581 113.449,375.148 Q113.449,374.715 112.15,374.607 Q109.985,374.498 109.985,373.308 Q109.985,372.875 109.011,372.117 Q107.495,370.926 107.495,370.276 Q107.495,369.952 106.954,369.519 Q106.521,369.086 106.521,367.353 L106.521,365.621 L105.763,365.405 Q105.113,365.188 104.789,364.647 Q104.464,364.106 104.572,363.564 Q104.789,363.131 105.438,363.131 Q105.979,363.131 106.088,363.023 Q106.196,362.915 106.196,362.482 Q106.196,361.94 105.763,361.94 Q105.33,361.94 104.356,361.616 Q104.031,361.399 103.868,361.291 Q103.706,361.183 103.598,361.02 Q103.489,360.858 103.381,360.425 Q103.273,359.559 102.894,359.288 Q102.515,359.018 102.515,357.177 Q102.407,355.445 101.974,355.12 Q101.433,354.795 101.378,353.226 Q101.324,351.656 100.891,351.331 Q100.566,351.006 100.458,350.357 L100.242,349.816 Q100.133,349.924 99.7,349.491 Q99.267,349.058 99.267,348.841 Q99.267,348.625 99.051,348.571 Q98.834,348.517 98.564,348.625 Q98.293,348.733 98.293,348.841 Q98.185,349.166 97.752,349.274 Q97.319,349.383 97.319,350.357 Q97.319,350.573 97.21,352.955 Q97.102,355.012 97.21,356.636 Q97.319,357.935 97.644,358.26 Q97.968,358.585 97.86,361.291 Q97.86,363.781 97.535,364.268 Q97.21,364.755 95.587,364.539 Q94.612,364.43 94.233,364.376 Q93.854,364.322 93.638,364.16 Q93.421,363.997 93.205,363.456 Q92.88,362.698 92.664,362.698 Q92.555,362.698 92.555,362.374 Q92.555,362.049 92.555,361.507 Q92.555,360.966 92.664,360.317 Q92.772,359.667 92.934,359.072 Q93.097,358.476 93.205,357.989 Q93.313,357.502 92.988,357.394 Q92.664,357.285 92.664,356.419 Q92.664,355.553 92.988,355.391 Q93.313,355.229 93.313,354.633 Q93.313,354.038 92.88,353.605 Q92.447,353.172 92.447,351.981 Q92.447,350.249 91.906,349.599 Q91.798,349.599 91.256,350.086 Q90.715,350.573 89.524,350.573 Q87.359,350.573 87.359,352.306 Q87.359,353.172 87.63,353.442 Q87.9,353.713 87.576,354.146 Q87.359,354.579 87.251,356.473 Q87.143,358.368 87.251,359.775 Q87.359,360.858 87.63,361.183 Q87.9,361.507 89.199,361.94 Q89.849,362.157 90.499,362.752 Q91.148,363.348 91.148,363.673 Q91.148,364.214 90.228,364.43 Q89.308,364.647 89.308,364.972 Q89.308,365.296 88.333,365.296 L87.251,365.405 L87.251,369.41 Q87.251,372.983 87.413,373.578 Q87.576,374.174 88.766,373.849 Q89.741,373.741 90.39,373.741 Q90.823,373.849 90.932,373.957 Q91.04,374.065 91.04,374.607 L91.04,375.364 L89.849,375.473 Q88.658,375.581 87.9,375.906 Q87.143,376.231 86.385,376.231 Q86.06,376.231 85.519,376.339 Q84.977,376.447 84.49,376.609 Q84.003,376.772 83.678,376.934 Q83.353,377.097 83.353,377.205 Q83.137,377.421 82.271,377.638 Q81.513,377.746 79.564,378.396 Q77.616,379.045 77.291,379.262 Q76.966,379.478 75.559,379.587 Q74.152,379.695 73.502,380.236 Q72.852,380.669 72.203,380.669 Q71.553,380.669 70.579,381.21 Q69.605,381.752 68.955,381.752 Q67.764,381.752 67.44,381.102 L67.44,380.886 Q67.764,380.561 67.71,380.128 Q67.656,379.695 67.44,379.478 Q67.115,379.154 67.115,378.937 Q67.115,378.612 66.682,378.504 Q66.249,378.396 66.032,377.746 Q65.707,377.097 66.14,376.339 Q66.574,375.364 67.115,375.906 Q67.44,376.339 68.847,376.501 Q70.254,376.664 71.445,376.447 Q72.852,376.231 73.177,376.014 Q73.394,375.797 75.342,375.797 Q77.291,375.689 79.564,375.581 Q81.405,375.364 81.73,375.148 Q82.054,374.931 82.163,373.632 Q82.271,372.55 82.704,371.9 Q82.92,371.359 83.083,368.815 Q83.245,366.271 82.92,365.946 Q82.812,365.621 81.675,365.567 Q80.539,365.513 80.431,365.838 Q80.431,366.054 79.131,366.487 Q78.374,366.704 77.995,366.974 Q77.616,367.245 77.453,367.624 Q77.291,368.003 77.183,368.869 Q77.075,370.168 76.75,370.439 Q76.425,370.709 76.425,370.926 Q76.425,371.142 75.992,371.413 Q75.559,371.684 75.342,371.467 Q75.126,371.359 75.126,371.088 Q75.126,370.818 74.693,370.601 Q74.26,370.276 73.827,369.302 Q73.394,368.328 73.502,367.57 Q73.935,365.08 73.556,364.052 Q73.177,363.023 73.61,359.884 Q73.935,358.151 73.935,355.662 Q74.043,352.847 73.61,352.089 Q73.069,350.898 73.502,349.707 Q73.935,348.733 73.502,348.408 Q72.744,347.542 73.719,346.676 Q74.152,346.243 74.639,346.243 Q75.126,346.243 75.342,346.676 Q75.559,347.109 76.317,347.217 Q76.966,347.326 77.183,347.759 Q77.832,348.95 80.539,348.625 Q81.838,348.517 82.163,348.787 Q82.487,349.058 82.92,348.95 Q83.245,348.95 83.299,348.462 Q83.353,347.975 83.353,345.377 Q83.353,344.294 83.299,342.346 Q83.245,340.397 83.245,340.072 Q83.245,338.232 83.029,338.016 Q82.812,337.799 80.809,338.449 Q78.807,339.098 76.371,339.098 Q73.935,339.098 73.502,338.665 Q72.744,337.907 72.961,336.825 Q73.177,336.175 74.693,336.175 Q83.787,336.175 85.627,335.526 Q86.276,335.309 88.225,335.093 Q90.932,334.984 91.256,333.793 Q91.365,333.36 91.906,333.252 Q92.231,333.144 92.88,332.494 Q93.313,331.845 93.746,331.845 Q94.937,331.845 95.37,332.819 Q95.587,333.36 95.803,333.36 Q96.02,333.36 96.02,333.685 Q96.02,333.902 96.344,334.227 Q97.21,334.984 95.803,336.392 Q95.37,336.933 94.991,337.041 Q94.612,337.149 93.097,337.258 Q91.148,337.366 90.39,337.582 Q88.658,338.124 88.225,338.34 Q87.792,338.557 87.792,338.882 Q87.792,339.315 88.117,339.802 Q88.442,340.289 88.766,340.289 Q89.091,340.289 89.308,340.884 Q89.524,341.48 89.308,342.021 Q89.091,342.454 89.091,343.104 Q89.091,343.753 88.333,344.728 L87.576,345.81 L87.9,347.001 Q88.333,348.625 89.199,348.625 Q89.524,348.625 90.011,348.462 Q90.499,348.3 90.877,348.138 Q91.256,347.975 91.365,347.759 Q91.473,347.542 92.285,347.542 Q93.097,347.542 93.205,347.867 Q93.205,347.975 93.584,348.138 Q93.963,348.3 94.342,348.408 Q94.721,348.517 94.937,348.408 Q95.262,348.3 95.208,347.813 Q95.154,347.326 94.829,347.217 Q93.963,347.001 94.504,345.702 Q94.721,345.161 95.803,346.243 Q96.561,347.001 97.968,347.217 Q99.484,347.326 99.484,347.759 Q99.484,348.3 100.133,348.083 Q100.458,347.975 100.35,345.81 Q100.242,343.645 99.863,343.32 Q99.484,342.995 99.376,341.372 Q99.159,339.639 98.726,339.315 Q98.185,338.99 97.86,338.232 Q97.427,337.582 97.86,336.825 Q98.185,336.067 98.185,335.634 Q98.185,335.309 98.401,335.201 Q98.618,335.093 98.618,334.66 Q98.618,334.227 98.943,334.01 Q99.267,333.793 99.376,329.68 Q99.484,326.215 99.376,325.241 Q99.267,324.267 98.618,324.159 Q98.077,323.942 93.097,324.267 Q89.416,324.483 86.493,324.592 Q84.761,324.7 83.787,324.808 Q82.596,325.025 76.371,325.079 Q70.146,325.133 69.93,325.458 Q69.605,325.674 70.254,325.891 Q70.904,326.107 71.012,327.19 Q71.12,328.272 71.012,332.819 Q70.904,337.799 70.579,338.557 Q69.93,339.748 70.471,341.047 Q70.687,341.588 70.471,342.454 Q70.254,343.428 70.038,347.326 Q69.821,351.115 69.496,352.197 Q69.172,353.172 69.063,354.471 Q68.847,357.177 68.089,358.26 Q67.981,358.476 67.764,359.559 Q67.656,360.641 67.44,361.183 Q67.223,361.507 67.115,362.807 Q66.898,364.106 66.574,364.376 Q66.249,364.647 65.816,365.838 Q64.95,368.436 64.517,368.761 Q64.408,368.869 63.975,370.06 Q63.542,371.251 63.326,371.467 Q63.109,371.684 63.001,372.55 Q62.893,373.416 62.676,373.47 Q62.46,373.524 62.135,374.282 Q61.81,375.04 61.161,375.364 Q60.511,375.797 60.186,377.421 Q60.078,378.179 59.537,378.612 Q59.104,378.937 59.104,379.099 Q59.104,379.262 58.346,380.02 Q57.588,380.669 57.155,381.643 Q56.722,382.618 56.506,382.618 Q56.289,382.618 56.073,383.159 Q55.856,383.7 55.639,383.7 Q55.531,383.7 54.99,384.566 Q54.665,385.541 54.34,385.649 Q54.016,385.757 53.474,386.948 Q52.933,387.922 52.229,388.734 Q51.526,389.546 51.201,389.546 Q50.984,389.546 50.822,390.088 Q50.66,390.629 50.443,390.629 Q50.227,390.629 49.577,391.278 Q48.928,391.928 48.657,391.928 Q48.386,391.928 48.007,392.469 Q47.628,393.01 47.304,393.01 Q46.979,393.01 46.762,393.389 Q46.546,393.768 46.221,393.768 Q45.463,393.877 44.597,395.067 Q44.272,395.717 43.298,395.825 Q42.757,395.825 42.486,395.825 Q42.216,395.825 41.999,395.717 Q41.782,395.609 41.728,395.392 Q41.674,395.176 41.674,394.743 Q41.674,393.877 42.107,393.714 Q42.54,393.552 43.406,392.74 Q44.272,391.928 44.922,391.603 Q45.572,391.17 45.572,391.062 Q45.572,390.845 46.221,390.088 Q46.979,389.438 46.979,389.221 Q47.087,389.005 48.061,388.247 Q48.928,387.598 49.577,386.623 Q50.01,385.757 50.389,385.649 Q50.768,385.541 51.201,384.729 Q51.634,383.917 51.85,383.376 Q52.067,382.185 53.258,381.102 Q54.232,380.236 54.232,379.965 Q54.232,379.695 54.449,379.478 Q54.773,379.154 54.882,378.504 Q55.098,377.746 55.531,377.53 Q56.073,377.313 56.073,377.042 Q56.073,376.772 56.506,376.555 Q56.939,376.231 56.939,375.581 Q56.939,374.823 57.372,373.849 Q57.48,373.524 57.751,372.983 Q58.021,372.441 58.129,372.225 Q58.346,371.792 58.562,371.575 Q58.779,371.359 58.995,370.601 Q59.104,369.735 59.429,369.519 Q60.078,369.194 60.078,367.137 Q60.078,366.487 60.511,365.946 Q60.944,365.405 60.944,365.026 Q60.944,364.647 61.485,363.673 Q62.027,362.698 62.027,361.832 Q62.027,361.074 62.46,360.1 Q62.893,359.234 63.001,358.043 Q63.109,356.852 63.434,356.636 Q63.651,356.311 63.651,355.77 Q63.651,355.229 63.434,354.795 Q63.109,354.362 63.109,353.334 Q63.109,352.306 63.434,351.927 Q63.759,351.548 63.867,349.383 Q64.084,343.104 64.625,342.129 Q64.841,341.805 64.841,341.101 Q64.841,340.397 64.517,340.181 Q64.3,340.072 64.354,339.585 Q64.408,339.098 64.625,338.882 Q64.95,338.557 64.95,336.013 Q64.95,333.469 64.625,332.494 Q63.651,328.814 63.975,327.839 Q64.084,326.973 64.408,326.973 Q64.733,326.973 64.841,326.703 Q64.95,326.432 64.733,326.324 Q63.651,325.566 63.651,323.076 Q63.651,321.452 63.326,320.803 Q63.001,320.153 62.893,319.07 Q62.785,318.096 62.351,317.338 Q61.81,316.689 61.702,315.931 Q61.594,315.173 61.377,315.065 Q60.728,314.632 61.81,313.766 z M67.981,331.412 Q67.981,330.979 67.223,330.979 Q66.465,330.979 66.357,331.195 Q66.249,331.304 66.249,331.682 Q66.249,332.061 66.465,332.17 Q66.898,332.386 67.44,332.115 Q67.981,331.845 67.981,331.412 z M101.324,332.278 Q100.891,332.061 100.783,332.115 Q100.675,332.17 100.566,332.603 Q100.133,334.227 101,334.335 Q101.324,334.227 101.324,333.902 Q101.324,333.36 101.541,332.927 Q101.757,332.494 101.324,332.278 z M68.197,346.46 Q68.089,346.243 67.71,346.243 Q67.331,346.243 67.223,346.351 Q66.682,346.893 67.44,347.217 Q67.656,347.326 68.035,347.001 Q68.414,346.676 68.197,346.46 z M102.299,349.707 Q102.299,349.383 102.028,349.274 Q101.757,349.166 101.378,349.383 Q101,349.599 101.216,349.924 Q101.433,350.249 101.757,350.249 Q102.299,350.14 102.299,349.707 z M82.487,350.79 Q81.188,349.924 80.322,350.79 Q79.997,351.223 78.59,351.331 L77.183,351.439 L77.183,352.306 Q77.291,353.172 77.508,353.388 Q78.157,353.821 77.508,354.254 Q76.966,354.795 77.508,356.311 Q77.832,357.069 77.616,357.502 Q77.291,357.827 77.616,358.801 Q78.049,360.641 77.616,361.399 Q77.399,361.832 77.724,362.59 Q78.049,363.24 78.374,363.402 Q78.698,363.564 79.997,363.673 Q81.297,363.781 81.946,363.889 Q82.812,363.997 83.137,363.781 Q83.353,363.456 83.462,359.992 Q83.678,355.553 83.678,355.337 Q83.678,354.795 83.624,353.821 Q83.57,352.847 83.408,352.089 Q83.245,351.331 83.137,351.223 Q83.029,351.223 82.487,350.79 z M95.154,351.981 Q95.154,350.898 94.396,351.439 Q94.071,351.764 93.963,352.089 Q93.854,352.414 94.125,352.63 Q94.396,352.847 94.775,352.684 Q95.154,352.522 95.154,351.981 z M104.789,351.331 Q103.165,350.682 102.732,352.306 Q102.515,352.955 103.165,352.955 Q103.598,352.955 104.356,352.522 Q105.979,351.764 104.789,351.331 z M85.735,359.342 Q86.168,359.342 86.168,358.422 Q86.168,357.502 85.735,357.502 Q85.086,357.502 85.086,358.26 Q85.086,359.342 85.735,359.342 z M105.33,359.126 Q105.979,359.126 105.979,358.909 Q105.979,358.693 105.33,358.693 Q104.68,358.693 104.68,358.909 Q104.68,359.126 105.33,359.126 z M111.825,369.735 Q111.176,369.519 110.093,369.519 Q109.011,369.519 108.902,369.843 Q108.794,370.168 109.335,370.276 L110.743,370.385 Q112.367,370.385 112.258,370.06 Q112.258,369.843 111.825,369.735 z M113.341,372.117 Q113.341,371.792 113.233,371.684 Q113.124,371.575 112.583,371.575 Q111.825,371.575 111.717,371.846 Q111.609,372.117 112.258,372.55 Q113.341,373.308 113.341,372.117 z M116.697,377.963 Q116.697,377.421 114.748,377.638 Q114.099,377.746 114.099,377.909 Q114.099,378.071 114.64,378.612 Q115.181,379.262 115.398,379.045 Q115.723,378.72 116.156,378.504 Q116.697,378.287 116.697,377.963 z M119.836,384.35 Q120.161,384.242 120.161,384.079 Q120.161,383.917 119.403,383.917 Q118.646,383.917 118.646,384.242 Q118.646,384.891 119.836,384.35 z M93.205,367.895 Q93.313,367.57 93.746,367.624 Q94.179,367.678 94.396,368.003 Q94.612,368.436 94.937,368.436 Q95.262,368.436 95.37,368.761 Q95.478,369.086 96.344,369.302 Q97.319,369.519 97.319,369.843 Q97.319,370.168 97.86,370.385 Q98.401,370.601 98.51,371.034 Q98.618,371.359 98.943,371.359 Q99.484,371.359 99.484,372.875 Q99.484,373.308 99.863,373.524 Q100.242,373.741 100.242,373.957 Q100.242,374.174 100.783,375.256 Q101.433,376.339 101.433,378.72 L101.433,381.102 L100.458,382.076 Q99.484,383.051 99.376,383.7 Q99.267,384.133 99.105,384.242 Q98.943,384.35 98.293,384.35 Q97.319,384.35 97.319,384.133 Q97.319,383.917 96.886,383.809 Q96.128,383.592 94.504,381.86 Q94.179,381.535 94.071,380.561 Q93.854,379.695 93.692,379.695 Q93.53,379.695 93.53,378.396 Q93.638,377.205 93.205,376.555 Q92.88,375.797 93.097,374.931 Q93.421,373.741 93.205,370.493 Q92.988,368.328 93.205,367.895 z" fill="#000000"/>
    <path d="M230.487,314.895 Q230.783,314.598 230.932,314.203 Q231.08,313.808 232.364,313.956 Q233.648,314.105 233.944,314.352 Q234.24,314.598 235.031,314.895 Q235.821,315.092 236.018,315.29 Q236.216,315.389 237.105,315.487 Q238.685,315.784 238.784,316.08 Q238.882,316.278 238.389,316.673 Q237.994,316.969 237.994,317.364 Q237.994,317.759 237.598,317.957 Q237.203,318.154 237.203,318.846 Q237.203,319.537 236.66,319.734 Q236.117,319.932 236.117,320.179 Q236.117,320.426 235.623,320.821 Q234.438,321.809 235.722,322.5 Q236.315,322.796 237.944,322.697 Q239.574,322.599 239.673,322.204 Q239.969,321.611 241.352,321.611 Q242.438,321.611 243.13,321.216 Q243.92,320.821 244.216,320.821 Q244.512,320.821 245.204,320.228 Q245.994,319.636 247.623,319.636 Q249.253,319.636 249.698,320.13 Q250.142,320.623 250.438,320.623 Q250.735,320.623 251.821,321.71 Q253.994,323.981 252.117,324.673 Q251.722,324.87 251.722,325.167 Q251.722,325.463 251.426,325.463 Q251.229,325.463 250.537,326.056 L249.846,326.747 L249.747,329.71 Q249.648,332.772 249.549,332.871 Q249.451,333.068 248.463,332.673 Q247.574,332.377 246.093,332.377 Q244.611,332.377 243.821,332.871 Q243.13,333.364 240.463,333.364 Q237.895,333.364 237.697,333.562 Q237.5,333.661 236.808,334.451 Q236.117,335.34 236.117,336.328 Q236.117,337.216 236.364,337.216 Q236.611,337.216 237.105,337.612 Q237.796,338.204 239.673,337.71 Q242.734,336.92 244.216,337.809 Q244.809,338.204 245.747,338.204 Q246.685,338.204 246.932,337.858 Q247.179,337.513 247.574,337.315 Q248.463,336.723 248.562,336.624 Q249.056,336.229 249.994,336.229 Q250.932,336.229 251.377,335.784 Q251.821,335.34 252.513,335.241 Q253.204,335.142 254.241,335.34 Q255.278,335.537 255.574,335.932 Q255.871,336.229 256.76,336.328 Q257.352,336.328 257.5,336.426 Q257.648,336.525 257.648,337.118 Q257.747,337.908 257.648,338.5 L257.451,339.093 L254.587,339.093 Q248.265,339.192 247.87,339.488 Q247.574,339.587 247.772,340.772 Q247.87,341.957 248.562,342.55 Q249.253,343.241 249.945,343.241 Q250.735,343.241 251.031,343.538 Q251.722,344.229 251.13,345.118 Q250.833,345.513 251.13,347.093 Q251.327,348.772 250.932,350.056 Q250.636,351.143 250.537,352.822 Q250.438,354.501 250.735,354.995 Q250.932,355.291 250.735,357.266 Q250.537,359.242 250.735,360.328 Q250.833,361.217 250.735,362.501 Q250.636,363.785 250.241,363.983 Q249.253,364.378 250.142,364.872 Q250.537,365.069 250.438,365.761 Q250.34,366.452 250.043,366.6 Q249.747,366.748 249.747,367.143 Q249.747,367.538 249.451,367.637 Q249.056,367.736 248.463,368.427 Q247.87,369.119 247.87,370.304 Q247.969,371.094 248.019,371.292 Q248.068,371.489 248.463,371.489 Q249.846,371.687 250.241,371.785 Q250.636,371.884 250.784,372.279 Q250.932,372.674 251.278,372.724 Q251.624,372.773 253.303,372.773 Q254.883,372.674 255.229,372.773 Q255.574,372.872 255.673,373.168 Q255.772,373.662 255.772,374.057 Q255.772,374.452 256.167,374.551 Q256.76,374.748 256.71,376.032 Q256.661,377.316 256.068,377.909 Q255.574,378.304 255.574,378.502 Q255.574,378.6 254.389,379.786 Q253.303,380.971 253.006,381.563 Q252.71,382.156 252.117,382.255 Q251.426,382.354 250.587,382.354 Q249.747,382.354 249.747,382.156 Q249.747,382.057 248.957,381.465 Q247.87,380.773 247.87,379.489 Q247.87,378.699 247.475,378.502 Q247.08,378.304 246.784,377.415 Q246.389,376.625 246.191,376.625 Q245.994,376.625 245.895,376.032 Q245.698,375.44 245.401,375.44 Q245.105,375.44 245.105,375.242 Q245.105,375.045 244.512,374.255 Q243.821,373.464 243.821,373.168 Q243.821,372.773 243.228,372.674 Q242.142,372.378 241.747,371.193 Q241.648,370.798 241.45,370.798 Q241.253,370.798 240.562,370.106 Q239.87,369.415 239.969,368.724 L240.068,368.032 L241.253,367.933 Q242.339,367.835 242.685,367.538 Q243.031,367.242 242.932,366.649 Q242.833,366.057 242.438,365.761 Q242.043,365.464 242.043,365.069 Q241.944,364.773 238.784,364.773 Q235.722,364.872 235.228,364.97 Q234.932,365.069 234.734,365.662 Q234.537,366.254 234.635,366.748 Q234.734,367.341 234.339,367.736 Q233.944,368.131 233.944,368.427 Q233.944,368.724 233.549,368.724 Q233.154,368.724 233.154,368.921 Q233.154,369.119 232.759,369.514 Q232.265,370.008 232.166,370.304 Q231.969,370.6 231.771,370.699 Q231.376,370.896 230.734,371.489 Q230.092,372.082 230.092,372.279 Q230.092,372.477 229.154,372.625 Q228.215,372.773 228.215,372.971 Q228.215,373.168 227.228,373.563 Q226.438,373.86 226.141,374.156 Q226.043,374.452 225.549,374.551 Q224.956,374.65 224.462,375.44 Q223.87,376.329 223.178,376.526 Q222.191,376.921 222.191,378.107 Q222.092,378.502 222.487,378.502 Q222.882,378.502 223.623,379.045 Q224.364,379.588 224.462,379.983 Q224.561,380.378 225.894,380.477 Q227.228,380.576 227.524,380.872 Q228.314,381.563 232.166,381.662 Q233.845,381.761 234.043,382.057 Q234.24,382.354 238.784,382.452 Q242.043,382.551 242.734,382.601 Q243.426,382.65 243.722,382.946 Q244.216,383.44 246.883,383.638 Q249.648,383.835 249.747,384.033 Q249.846,384.329 251.327,384.329 Q252.809,384.329 254.389,384.033 Q255.772,383.736 255.772,383.539 Q255.278,382.65 256.463,382.452 Q257.253,382.354 258.044,382.749 Q258.735,383.243 260.908,383.341 Q263.081,383.341 264.068,383.144 Q265.155,382.946 265.402,383.193 Q265.649,383.44 265.55,384.724 Q265.451,386.008 265.352,386.206 Q265.155,386.304 262.389,386.304 Q260.216,386.304 259.871,386.354 Q259.525,386.403 259.426,386.798 Q259.426,387.193 259.229,387.193 Q259.031,387.193 258.142,387.786 Q257.253,388.379 256.562,388.28 Q255.081,387.983 254.883,389.366 Q254.784,390.156 254.192,390.304 Q253.599,390.453 253.599,390.749 Q253.599,391.045 253.401,391.243 Q253.105,391.44 252.809,392.527 Q252.414,393.613 251.92,393.91 Q251.426,394.206 249.846,394.008 Q248.167,393.91 247.969,393.712 Q247.772,393.613 244.809,393.416 Q239.969,393.021 239.278,392.626 Q238.784,392.23 237.994,392.132 Q237.302,391.934 237.006,391.737 Q236.808,391.44 235.426,391.243 Q234.142,391.045 234.043,390.65 Q234.043,390.354 233.154,390.255 Q232.166,390.058 232.067,389.761 Q231.969,389.564 231.179,389.465 Q229.993,389.169 229.401,388.576 Q229.104,388.379 228.413,388.379 Q226.24,388.379 226.24,387.786 Q226.24,387.391 225.993,387.391 Q225.746,387.391 225.104,386.897 Q224.462,386.403 223.87,386.304 Q223.178,386.206 223.03,385.909 Q222.882,385.613 222.734,385.613 Q222.586,385.613 221.944,384.971 Q221.302,384.329 221.005,384.329 Q220.61,384.329 219.573,383.687 Q218.536,383.045 218.536,382.749 Q218.536,382.551 217.795,381.959 Q217.055,381.366 216.857,381.366 Q216.66,381.366 216.462,380.971 Q216.166,380.477 215.672,380.477 Q214.487,380.477 214.487,379.983 Q214.487,379.687 214.19,379.687 Q213.894,379.687 213.104,378.995 Q212.314,378.304 212.314,378.107 Q212.314,377.81 211.919,377.514 Q211.622,377.218 211.622,376.921 Q211.622,376.625 211.227,376.477 Q210.832,376.329 210.635,375.637 Q210.338,374.847 210.042,374.748 Q209.647,374.65 209.449,374.255 Q209.153,373.761 208.956,373.662 Q208.758,373.563 208.561,372.674 L208.462,371.785 L207.672,371.785 Q207.079,371.884 206.931,371.983 Q206.783,372.082 206.684,372.576 Q206.486,373.366 205.894,373.662 Q205.4,373.86 205.4,374.156 Q205.4,374.353 205.104,374.551 Q204.807,374.65 204.807,374.946 Q204.807,375.242 203.82,376.23 Q202.832,377.316 202.733,377.81 Q202.634,378.403 202.141,378.502 Q201.746,378.6 201.647,378.897 Q201.449,379.193 201.153,379.489 Q200.758,379.687 200.758,379.983 Q200.758,380.279 200.313,380.428 Q199.869,380.576 199.276,381.119 Q198.684,381.662 198.684,381.959 Q198.684,382.156 198.486,382.156 Q198.19,382.156 197.548,382.946 Q196.906,383.736 196.906,383.934 Q196.906,384.329 196.61,384.428 Q196.215,384.527 196.017,385.119 Q195.622,386.206 193.745,385.613 Q193.153,385.415 193.054,385.267 Q192.955,385.119 192.856,384.428 Q192.758,383.539 192.56,383.341 Q192.363,383.243 192.066,382.354 Q191.671,381.366 190.684,380.477 Q189.696,379.588 189.893,378.403 Q189.992,378.107 190.19,377.86 Q190.387,377.613 190.881,377.415 Q191.375,377.218 192.659,376.823 Q193.251,376.625 193.498,376.526 Q193.745,376.428 193.893,376.23 Q194.042,376.032 194.14,375.736 Q194.535,374.452 195.523,374.452 Q195.918,374.452 196.017,374.156 Q196.116,373.86 196.807,373.86 Q197.499,373.86 197.597,374.156 Q197.795,374.551 198.585,374.502 Q199.375,374.452 199.573,374.057 Q199.869,373.662 201.449,372.872 Q202.042,372.576 202.289,372.18 Q202.536,371.785 202.634,371.045 Q202.733,370.304 202.733,368.427 Q202.832,365.464 203.128,363.291 Q203.326,361.415 203.128,360.822 Q202.931,360.427 202.832,358.353 Q202.832,356.081 202.733,355.094 L202.634,353.908 L201.844,354.007 Q201.054,354.007 200.659,354.402 Q200.264,354.797 199.276,354.995 Q198.19,355.192 197.795,355.587 Q197.499,355.884 197.005,356.081 Q196.511,356.081 195.424,356.674 Q194.535,357.168 193.449,357.069 Q192.461,356.97 192.264,356.773 Q192.066,356.575 191.869,355.094 Q191.572,353.513 191.869,353.217 Q192.165,352.921 194.14,352.822 Q196.313,352.723 196.708,352.427 Q197.103,352.032 200.066,351.637 Q201.153,351.439 201.647,351.34 Q202.931,351.242 202.931,350.55 Q202.931,350.254 203.227,350.056 Q203.523,349.958 203.523,349.76 Q203.523,349.266 203.77,348.674 Q204.017,348.081 204.215,347.982 Q204.61,347.883 204.709,347.291 Q204.807,346.698 205.449,346.402 Q206.091,346.106 206.684,346.303 Q207.079,346.501 207.524,346.846 Q207.968,347.192 208.264,347.637 Q208.561,348.081 208.659,348.377 Q208.956,348.97 209.696,349.118 Q210.437,349.266 210.536,349.661 Q210.832,350.748 210.042,351.538 Q209.647,351.933 209.548,352.328 Q209.449,352.723 209.449,354.797 Q209.351,357.464 209.153,357.662 Q208.561,358.057 208.561,364.378 Q208.659,368.724 208.758,369.366 Q208.857,370.008 209.845,370.008 Q210.437,370.008 210.437,370.254 Q210.437,370.501 211.03,370.6 Q211.622,370.896 211.622,371.143 Q211.622,371.39 212.067,371.588 Q212.511,371.785 212.659,372.082 Q212.808,372.378 213.499,372.576 Q214.289,372.872 215.474,373.958 Q215.869,374.452 216.363,374.551 Q217.647,374.946 218.734,375.934 Q219.129,376.428 219.968,376.428 Q220.808,376.428 221.005,376.032 Q221.203,375.637 221.598,375.539 Q221.993,375.44 222.289,374.65 Q222.586,373.958 223.376,373.563 Q223.968,373.366 224.166,373.119 Q224.364,372.872 224.759,371.884 Q225.252,370.501 225.252,370.254 Q225.252,370.008 225.746,369.711 Q226.24,369.415 226.24,369.069 Q226.24,368.724 226.932,368.131 Q227.919,367.341 228.117,367.143 Q228.413,366.847 228.808,366.649 Q229.598,366.452 228.808,365.761 Q228.314,365.365 224.561,366.452 L223.178,366.847 L222.783,368.131 Q222.289,369.514 221.796,370.008 Q221.302,370.6 220.314,370.6 Q219.326,370.6 218.833,370.205 L218.437,369.711 L218.437,359.044 Q218.339,348.377 218.042,348.081 Q217.351,347.291 218.042,347.291 Q218.24,347.291 218.437,346.995 Q218.437,346.896 218.388,346.599 Q218.339,346.303 218.289,346.007 Q218.24,345.711 218.092,345.513 Q217.944,345.315 217.845,345.217 Q217.549,345.118 217.549,344.13 Q217.549,342.747 217.203,342.501 Q216.857,342.254 214.783,342.352 Q213.795,342.352 213.153,342.402 Q212.511,342.451 212.116,342.303 Q211.721,342.155 211.573,341.908 Q211.425,341.661 211.326,341.167 Q211.129,340.476 211.721,339.933 Q212.314,339.389 214.092,339.291 Q215.968,339.291 217.45,339.389 Q219.228,339.389 219.425,339.192 Q219.623,338.698 219.376,337.562 Q219.129,336.426 218.833,336.229 Q218.437,336.031 218.487,334.105 Q218.536,332.179 218.931,331.488 Q219.228,330.797 219.326,328.92 Q219.425,327.438 219.376,327.142 Q219.326,326.846 218.931,326.549 Q218.437,326.056 218.339,324.08 Q218.24,322.401 218.042,321.611 Q217.944,321.117 218.339,320.722 Q218.734,320.426 219.524,320.673 Q220.314,320.92 220.413,321.265 Q220.512,321.611 220.808,321.611 Q221.104,321.611 221.746,322.302 Q222.388,322.994 222.388,323.29 Q222.388,323.586 223.08,323.685 Q223.771,323.784 224.759,323.636 Q225.746,323.488 226.635,323.191 Q227.327,322.994 228.018,322.994 Q229.006,322.994 229.401,321.907 Q229.499,321.611 229.796,321.611 Q230.092,321.611 230.141,320.179 Q230.191,318.747 230.586,318.45 Q230.981,318.154 230.981,317.117 Q230.981,316.08 230.586,315.685 Q230.191,315.191 230.487,314.895 z M241.846,323.191 Q241.846,322.994 241.599,322.994 Q241.352,322.994 240.907,323.043 Q240.463,323.093 239.87,323.29 Q238.784,323.586 237.747,323.586 Q236.71,323.586 236.413,323.685 Q235.623,323.981 236.413,324.475 Q236.611,324.772 236.611,325.117 Q236.611,325.463 236.315,325.661 Q236.018,325.858 236.018,327.537 Q236.018,329.216 236.512,329.513 Q236.808,329.71 236.808,330.006 Q236.808,330.303 237.598,330.599 Q238.29,330.895 238.981,330.698 Q239.574,330.5 240.068,330.401 Q240.66,330.204 241.352,329.71 Q242.043,329.216 242.043,329.019 Q242.043,328.722 242.389,328.475 Q242.734,328.229 242.734,325.957 Q242.734,324.278 242.685,323.981 Q242.636,323.685 242.339,323.488 Q241.846,323.389 241.846,323.191 z M226.734,324.673 Q225.45,324.772 224.462,324.574 Q223.87,324.475 223.722,324.574 Q223.573,324.673 223.376,325.068 Q223.08,325.759 223.277,326.846 Q223.475,327.932 223.277,329.315 Q222.981,331.685 223.771,331.685 Q223.968,331.685 224.166,331.883 Q224.364,332.179 227.08,332.377 Q229.796,332.574 229.993,332.377 Q230.191,332.278 230.388,331.636 Q230.586,330.994 230.487,330.797 Q230.388,330.303 230.29,327.735 Q230.191,324.87 229.993,324.772 Q229.796,324.475 226.734,324.673 z M230.092,336.031 L230.092,333.562 L228.117,333.562 Q226.141,333.661 225.252,334.056 Q224.265,334.55 224.265,334.846 Q224.265,335.439 222.882,336.426 Q222.388,336.723 222.388,337.315 Q222.388,337.908 222.783,338.204 Q223.968,338.896 226.29,339.142 Q228.611,339.389 229.499,338.896 L230.092,338.599 z M244.117,339.883 Q243.525,339.488 241.055,339.389 Q238.586,339.291 237.697,339.686 Q236.907,339.982 231.672,340.18 Q226.339,340.377 225.796,340.772 Q225.252,341.167 222.981,341.266 Q219.919,341.365 219.524,342.155 Q219.326,342.55 219.474,342.896 Q219.623,343.241 219.919,343.241 Q220.116,343.241 221.005,344.13 Q221.796,344.92 222.586,345.118 Q223.277,345.315 223.672,345.612 Q223.968,345.908 224.956,346.204 Q226.043,346.599 227.524,346.303 Q229.401,346.106 231.475,346.007 Q233.845,345.908 234.339,345.562 Q234.833,345.217 237.5,345.118 Q240.265,345.019 240.759,344.624 Q241.253,344.229 241.45,344.229 Q241.648,344.229 242.586,343.636 Q243.525,343.044 243.623,342.747 Q243.821,342.55 243.92,342.056 Q244.018,341.562 244.414,341.266 Q245.204,340.673 244.117,339.883 z M241.253,346.896 Q239.969,346.501 239.673,346.797 Q239.574,346.896 233.055,347.192 Q229.598,347.291 229.203,347.686 Q228.413,348.476 225.944,348.476 Q225.351,348.476 224.364,348.97 Q223.573,349.365 223.376,349.809 Q223.178,350.254 223.277,351.933 L223.277,352.921 L225.549,352.921 Q227.82,352.921 228.067,352.575 Q228.314,352.229 230.388,352.032 Q232.561,351.834 233.747,351.785 Q234.932,351.735 235.673,351.785 Q236.413,351.834 236.66,352.032 Q236.907,352.229 236.808,352.526 Q236.71,352.921 235.031,353.069 Q233.351,353.217 233.055,353.513 Q232.265,354.205 229.697,354.205 Q228.215,354.205 227.524,354.6 Q226.833,354.995 226.438,354.995 Q224.956,354.995 224.215,355.884 Q223.475,356.773 223.178,358.945 Q222.981,359.834 222.882,360.328 Q222.684,360.723 223.475,361.513 Q224.265,362.205 224.364,362.995 Q224.364,363.291 224.413,363.39 Q224.462,363.489 224.561,363.637 Q224.66,363.785 224.759,363.835 Q224.857,363.884 225.154,363.983 Q225.944,364.279 226.29,364.477 Q226.635,364.674 227.672,364.23 Q228.709,363.785 229.697,363.983 Q231.277,364.081 232.858,363.588 Q234.24,362.995 237.796,362.896 Q241.352,362.797 241.45,362.699 Q241.45,362.699 241.747,362.106 Q242.438,360.822 241.846,359.341 L241.648,358.847 L238.586,358.945 Q235.524,358.945 235.129,359.242 Q234.438,359.933 230.487,359.834 Q226.24,359.736 226.24,359.341 Q226.24,358.847 228.611,358.847 Q229.302,358.847 229.895,358.353 Q230.586,357.958 233.055,357.958 Q238.389,357.958 238.981,357.365 Q239.278,357.168 240.66,357.069 L241.944,356.97 L241.944,356.081 Q241.846,355.094 241.549,354.896 Q241.253,354.698 241.352,353.908 Q241.45,353.217 241.253,353.019 Q241.055,352.822 240.166,352.822 Q239.376,352.822 239.179,352.427 Q238.586,351.439 239.771,351.044 Q240.759,350.748 241.352,349.76 Q241.846,349.069 241.846,348.081 Q241.846,347.39 241.747,347.241 Q241.648,347.093 241.253,346.896 z M245.895,348.97 Q245.796,347.785 245.599,347.686 Q245.5,347.587 244.858,347.686 Q244.216,347.785 244.018,347.982 Q243.821,348.18 243.92,349.069 Q244.018,349.958 244.315,350.155 Q244.71,350.55 244.907,350.846 Q245.698,351.834 245.895,350.254 z M247.772,356.378 Q247.475,356.081 246.685,356.032 Q245.895,355.982 245.5,356.18 Q245.105,356.476 244.907,356.97 Q244.71,357.464 244.957,357.76 Q245.204,358.057 245.944,358.155 Q246.685,358.254 247.179,358.057 Q247.574,357.958 247.821,357.316 Q248.068,356.674 247.772,356.378 z M222.684,364.18 Q221.993,363.785 221.45,364.378 Q220.907,364.97 221.302,365.859 Q221.796,367.143 222.289,365.859 Q222.684,364.97 222.783,364.773 Q222.981,364.378 222.684,364.18 z M248.265,365.563 Q248.661,365.365 248.661,364.723 Q248.661,364.081 248.364,364.081 Q247.969,364.081 247.969,364.378 Q247.87,364.575 247.772,364.872 Q247.673,365.069 247.772,365.267 Q247.87,365.464 248.019,365.514 Q248.167,365.563 248.265,365.563 z M244.018,384.823 Q243.92,384.428 243.475,384.477 Q243.031,384.527 242.833,385.02 Q242.636,385.415 242.636,385.712 Q242.636,386.008 242.241,386.206 Q241.846,386.403 241.846,386.699 Q241.846,386.996 242.241,387.193 Q242.537,387.49 242.586,387.835 Q242.636,388.181 242.339,388.477 Q242.142,388.675 241.994,389.169 Q241.846,389.662 242.043,389.86 Q242.142,389.959 242.932,390.107 Q243.722,390.255 244.809,390.354 Q245.895,390.453 246.685,390.453 Q247.87,390.453 247.87,389.761 Q247.87,389.465 248.759,389.267 Q249.549,389.07 249.549,388.774 Q249.549,388.477 248.759,388.28 Q247.969,387.983 247.87,387.588 Q247.772,387.193 246.735,387.193 Q245.698,387.193 245.204,386.699 Q244.414,385.811 244.018,384.823 z M249.747,385.415 Q248.463,385.119 248.265,385.119 Q248.068,385.119 247.772,385.415 Q247.475,385.712 247.673,386.304 Q247.969,386.996 248.117,387.095 Q248.265,387.193 248.661,386.897 Q249.549,386.008 249.945,386.699 Q250.142,387.095 250.587,386.996 Q251.031,386.897 251.229,386.403 Q251.426,385.811 251.327,385.811 Q251.229,385.712 249.747,385.415 z M237.895,387.391 L237.895,386.502 L237.105,386.502 Q236.413,386.403 236.265,386.551 Q236.117,386.699 236.018,387.292 Q235.919,387.786 236.117,387.983 Q236.315,388.181 237.006,388.181 L237.895,388.28 z M250.241,389.86 Q250.34,389.86 250.34,389.712 Q250.34,389.564 250.142,389.564 Q249.945,389.564 250.043,389.712 Q250.142,389.86 250.241,389.86 z M243.327,388.971 Q242.833,388.971 242.833,388.774 Q242.833,388.576 243.228,388.576 Q243.623,388.576 243.722,388.774 Q243.623,388.872 243.327,388.971 z M201.449,316.574 Q202.042,316.475 202.239,316.475 Q202.536,316.574 203.03,316.771 Q203.523,316.87 204.215,317.265 Q204.807,317.759 205.202,317.759 Q205.598,317.759 205.795,318.154 Q206.486,319.339 208.264,319.734 Q209.548,319.932 210.141,320.228 Q210.931,320.623 211.425,320.821 Q212.215,321.018 212.413,321.562 Q212.61,322.105 212.61,323.784 Q212.511,325.562 212.116,326.056 Q211.82,326.451 211.524,326.945 Q211.326,327.438 211.129,327.438 Q210.931,327.438 210.338,327.833 Q209.054,328.821 207.573,328.624 Q206.684,328.525 206.585,328.13 Q206.486,327.735 205.746,327.537 Q205.005,327.34 204.807,326.846 Q204.807,326.846 204.61,326.352 Q204.412,325.858 204.215,325.562 Q203.918,324.772 203.622,323.883 Q203.425,322.895 203.079,322.549 Q202.733,322.204 202.733,321.71 Q202.733,321.216 202.338,320.821 Q201.252,319.537 201.005,319.043 Q200.758,318.549 200.857,317.759 Q200.857,317.265 200.906,317.018 Q200.955,316.771 201.054,316.722 Q201.153,316.673 201.449,316.574 z M196.807,333.364 Q196.906,333.167 198.091,333.315 Q199.276,333.463 199.869,333.661 Q200.462,333.957 200.758,333.957 Q201.449,333.957 203.227,334.846 Q204.017,335.34 205.104,335.439 Q206.19,335.537 206.486,335.834 Q206.684,336.031 206.98,336.031 Q207.277,336.031 207.869,336.723 Q208.462,337.414 208.561,338.599 Q208.857,341.068 208.166,341.068 Q207.869,341.068 207.672,341.562 Q207.573,342.056 207.178,342.254 Q206.783,342.451 206.635,342.896 Q206.486,343.34 206.19,343.538 Q205.894,343.735 205.4,343.785 Q204.906,343.834 204.709,343.636 Q204.61,343.439 203.82,343.34 Q203.128,343.143 202.141,342.649 Q200.955,341.76 200.659,340.081 Q200.56,339.389 200.313,339.389 Q200.066,339.389 199.869,338.402 Q199.573,337.414 198.585,336.328 Q197.499,335.34 197.202,335.34 Q197.005,335.34 196.807,334.5 Q196.61,333.661 196.807,333.364 z" fill="#000000"/>
    <path d="M358.936,313.542 Q359.875,313.02 360.293,313.542 Q360.605,313.855 360.814,314.585 Q361.127,315.315 361.336,315.419 Q361.649,315.628 361.649,316.045 Q361.649,316.462 362.222,317.088 Q362.796,317.714 362.9,318.549 Q363.109,319.383 363.474,319.488 Q363.839,319.592 363.839,320.479 Q363.839,321.365 364.1,321.678 Q364.361,321.991 364.361,324.338 Q364.361,326.685 364.048,327.207 Q363.735,327.728 363.735,334.717 Q363.631,341.707 363.37,341.863 Q363.109,342.02 361.962,342.02 Q360.814,342.02 359.98,342.437 Q359.145,342.854 358.936,342.75 Q358.728,342.645 355.494,342.854 Q350.8,343.167 348.401,342.124 Q347.775,341.811 347.566,341.863 Q347.358,341.915 347.045,342.437 Q346.627,343.063 347.149,345.149 Q347.358,346.088 347.358,349.009 Q347.358,352.034 347.045,352.242 Q346.314,352.868 347.045,353.807 Q347.358,354.224 347.462,361.109 Q347.566,367.994 347.879,368.202 Q348.088,368.411 348.505,369.35 Q348.818,370.08 349.235,370.289 Q349.652,370.393 349.652,371.332 Q349.652,372.271 349.235,372.375 Q348.818,372.479 348.401,373.314 Q347.983,374.253 347.827,374.253 Q347.67,374.253 347.462,377.278 Q347.253,380.199 347.045,380.303 Q346.836,380.512 346.523,381.398 Q346.21,382.285 345.897,382.598 Q345.584,382.911 345.48,383.641 Q345.376,384.163 345.219,384.319 Q345.063,384.475 344.228,384.58 Q341.725,384.893 341.412,383.745 Q341.203,383.224 340.786,382.702 Q340.368,382.285 340.368,380.981 Q340.368,379.677 340.786,379.155 Q341.203,378.634 341.359,377.017 Q341.516,375.4 341.777,375.087 Q342.037,374.774 342.194,365.386 Q342.35,355.998 342.246,350.782 Q342.142,345.983 342.35,344.94 Q342.559,343.897 342.35,343.063 Q342.037,342.332 342.037,340.976 Q342.037,339.725 341.829,339.307 Q341.516,338.89 341.412,332.318 Q341.412,321.052 340.994,320.426 Q340.681,320.113 340.421,317.453 Q340.16,314.793 340.473,314.376 Q340.681,313.959 340.838,313.959 Q340.994,313.959 342.037,314.272 Q343.185,314.689 343.289,315.002 Q343.289,315.315 343.759,315.471 Q344.228,315.628 344.437,316.045 Q344.75,316.358 345.01,316.358 Q345.271,316.358 345.48,316.88 Q345.688,317.401 346.314,317.506 Q346.836,317.61 347.67,318.549 Q348.609,319.488 348.922,319.488 Q349.235,319.488 349.652,319.748 Q350.07,320.009 350.904,319.801 Q351.634,319.488 352.573,319.488 Q353.408,319.488 353.512,319.175 Q353.616,318.862 354.555,318.862 Q355.911,318.757 356.537,317.506 Q356.954,316.671 357.267,316.567 Q357.58,316.358 357.58,315.941 Q357.58,315.524 357.893,315.419 Q358.311,315.106 358.415,314.48 Q358.623,313.75 358.936,313.542 z M352.99,320.635 Q351.634,320.531 350.591,320.322 Q349.861,320.218 349.757,320.322 Q349.652,320.426 349.548,320.844 Q349.444,321.261 349.235,321.365 Q349.027,321.47 348.401,321.47 Q347.566,321.47 347.149,321.782 Q346.732,322.095 346.836,322.513 Q346.94,323.243 347.045,324.286 Q347.149,325.642 347.253,325.746 Q347.358,325.746 347.149,326.477 Q346.94,327.207 347.253,328.772 Q347.566,330.336 347.67,330.441 Q347.775,330.545 350.539,330.545 Q353.303,330.545 353.512,330.18 Q353.721,329.815 355.025,329.815 Q356.329,329.815 356.537,329.397 Q356.85,328.563 356.746,324.651 Q356.641,320.739 356.224,320.426 Q356.016,320.218 355.233,320.479 Q354.451,320.739 352.99,320.635 z M356.329,331.171 Q356.329,330.649 355.807,330.962 Q355.703,331.066 355.598,331.275 Q355.285,331.692 351.53,331.692 Q347.879,331.692 347.149,331.797 Q346.732,331.901 346.627,332.057 Q346.523,332.214 346.523,332.736 Q346.523,333.57 346.94,334.196 Q347.358,334.822 347.358,336.334 Q347.358,337.847 347.045,338.473 Q346.836,338.994 346.732,339.985 Q346.627,340.976 346.732,341.081 Q346.94,341.289 347.775,341.081 Q348.714,340.872 351.947,340.872 Q356.329,340.872 356.329,340.246 Q356.329,340.038 356.954,339.725 Q357.58,339.412 357.58,338.734 Q357.58,338.056 357.163,337.951 Q356.746,337.847 356.746,336.908 Q356.746,335.969 357.059,335.813 Q357.372,335.656 357.267,334.926 Q357.163,334.613 356.954,333.048 Q356.85,331.901 356.641,331.692 Q356.329,331.484 356.329,331.171 z M367.907,313.646 Q368.22,313.333 369.003,313.333 Q369.785,313.333 369.994,313.855 Q370.202,314.376 370.411,314.376 Q370.62,314.376 370.828,314.898 Q371.037,315.419 371.35,315.419 Q371.663,315.419 371.819,315.889 Q371.976,316.358 372.184,316.358 Q372.393,316.358 373.228,317.036 Q374.062,317.714 374.062,317.923 Q374.062,318.131 374.375,318.236 Q375.209,318.653 374.792,327.207 Q374.792,329.085 375.94,328.563 Q376.566,328.354 377.922,328.563 Q379.278,328.667 380.53,328.354 Q381.573,328.146 382.094,328.146 Q382.511,328.25 382.72,328.041 Q382.824,327.833 383.763,327.833 Q384.389,327.833 384.546,327.937 Q384.702,328.041 384.859,328.615 Q385.015,329.189 384.963,329.397 Q384.911,329.606 384.389,330.023 Q383.763,330.649 382.303,330.649 Q380.842,330.649 379.799,330.336 Q378.756,330.023 378.026,330.336 Q376.461,331.066 375.835,330.023 Q375.522,329.293 374.688,329.815 Q374.375,330.023 374.584,331.066 Q374.792,332.11 374.897,334.822 Q375.001,336.804 375.105,337.221 Q375.209,337.638 375.627,338.056 Q376.044,338.473 376.305,338.525 Q376.566,338.577 377.296,338.368 Q379.486,337.951 381.886,337.847 Q384.285,337.743 384.493,338.056 Q384.598,338.16 384.806,338.89 Q384.911,339.62 384.285,340.246 Q383.763,340.768 383.346,340.872 Q382.929,340.976 380.842,341.081 Q377.713,341.289 375.94,341.289 Q373.853,341.185 373.749,341.394 Q373.645,341.707 372.862,341.654 Q372.08,341.602 371.663,341.394 Q371.037,341.081 370.411,340.35 L369.785,339.516 L369.785,335.239 Q369.785,331.066 370.202,330.545 Q370.724,329.71 370.098,328.876 Q369.889,328.563 369.681,323.764 Q369.576,318.966 369.264,318.601 Q368.951,318.236 368.742,317.088 Q368.533,315.732 368.116,314.898 Q367.699,313.959 367.907,313.646 z M391.795,314.376 Q392.108,314.272 392.63,314.324 Q393.152,314.376 393.673,314.48 Q394.195,314.585 394.612,314.793 Q395.029,315.002 395.029,315.159 Q395.029,315.315 395.551,315.419 Q396.072,315.628 396.072,315.941 Q396.072,316.15 396.803,316.88 Q397.533,317.61 398.263,317.61 Q398.993,317.506 399.202,317.662 Q399.41,317.819 399.41,318.549 Q399.41,319.279 398.889,319.592 Q398.263,319.905 398.263,320.113 Q398.263,320.322 397.846,320.844 Q397.428,321.157 396.803,321.887 L396.177,322.617 L396.177,329.085 Q396.281,335.552 396.646,335.813 Q397.011,336.074 397.011,342.541 Q397.011,353.181 397.637,353.911 Q398.054,354.224 398.263,361.526 Q398.367,369.037 398.263,373.522 Q398.159,378.217 397.741,379.051 Q397.324,379.781 397.116,381.033 Q396.907,382.285 396.594,382.494 Q396.281,382.598 396.177,383.537 Q396.072,384.371 395.551,384.475 Q395.029,384.684 395.029,384.893 Q395.029,385.101 394.612,385.936 Q394.195,386.77 394.09,387.188 Q393.986,387.605 393.673,387.814 Q393.256,387.918 393.152,388.231 Q393.047,388.544 392.734,388.544 Q392.421,388.544 391.483,389.17 Q390.752,389.691 389.918,389.691 Q389.188,389.691 388.979,389.065 Q388.77,388.439 388.77,388.126 Q388.77,387.709 388.457,387.501 Q388.144,387.188 388.04,386.457 Q387.832,385.519 387.362,384.893 Q386.893,384.267 386.893,383.954 Q386.893,383.641 386.475,383.432 Q386.163,383.224 385.954,382.598 Q385.85,381.972 385.119,381.659 Q384.076,380.929 384.076,379.886 Q384.076,379.677 384.493,379.468 Q385.119,379.26 387.414,379.573 Q389.292,379.781 389.709,379.677 Q390.126,379.573 390.126,378.842 Q390.126,378.425 390.544,377.904 Q390.961,377.382 390.909,377.069 Q390.857,376.756 390.544,375.504 Q390.231,374.67 390.544,373.105 Q390.752,371.645 390.439,370.393 Q390.022,368.933 390.335,353.077 Q390.335,352.242 390.544,352.138 Q391.17,351.825 390.439,350.469 Q390.231,350.052 390.074,345.671 Q389.918,341.289 389.918,338.16 Q389.918,336.282 389.605,335.969 Q389.292,335.656 389.188,334.822 Q389.083,333.987 389.083,330.023 Q389.083,320.844 388.457,319.696 Q388.04,319.175 388.353,318.966 Q388.666,318.757 389.083,317.819 Q390.439,314.898 391.795,314.376 z M380.321,318.549 Q380.842,318.444 383.242,318.444 Q386.684,318.444 386.684,319.07 Q386.684,319.279 385.432,319.905 Q384.181,320.531 381.155,320.583 Q378.13,320.635 377.922,320.27 Q377.713,319.905 377.922,319.383 Q378.13,318.862 378.965,318.757 Q380.008,318.653 380.321,318.549 z M364.882,343.167 Q365.821,342.228 367.177,343.584 Q367.907,344.314 368.012,344.523 Q368.012,344.836 369.472,344.94 Q370.828,345.045 371.976,345.566 Q372.497,345.775 372.706,345.931 Q372.915,346.088 372.967,346.244 Q373.019,346.401 373.019,346.714 Q373.019,347.965 372.184,348.904 Q371.767,349.322 371.871,350.052 Q372.08,350.886 372.706,351.043 Q373.332,351.199 375.314,351.095 Q379.799,350.886 379.799,350.365 Q379.799,350.156 380.008,349.895 Q380.217,349.634 380.477,349.426 Q380.738,349.217 381.051,349.009 Q381.364,348.8 381.468,348.8 Q381.781,348.8 381.99,348.383 Q382.199,347.965 382.511,347.965 Q382.824,347.965 383.033,347.548 Q383.242,347.131 383.92,347.131 Q384.598,347.131 384.911,347.757 Q385.224,348.383 385.224,348.696 Q385.224,349.009 385.589,349.165 Q385.954,349.322 386.058,350.678 Q386.163,352.034 385.641,352.242 Q385.119,352.451 384.546,352.816 Q383.972,353.181 378.548,353.181 Q373.123,353.181 372.915,353.598 Q372.393,354.329 373.228,355.476 Q373.853,356.206 373.853,356.415 Q373.853,356.728 374.792,357.667 Q377.087,360.066 374.479,361.109 Q373.853,361.422 373.853,361.631 Q373.853,361.839 373.54,362.257 Q373.019,362.778 372.81,362.987 Q372.497,363.404 371.663,363.404 Q371.037,363.404 371.037,363.821 Q371.037,364.864 371.871,364.864 Q372.602,364.864 373.332,365.595 Q374.062,366.325 374.375,366.325 Q374.688,366.325 374.897,366.742 Q375.105,367.159 375.366,367.159 Q375.627,367.159 375.835,367.681 Q375.94,368.098 376.774,368.307 Q377.713,368.411 377.87,368.933 Q378.026,369.454 378.913,370.341 Q379.799,371.228 380.008,372.584 Q380.217,373.94 380.008,376.235 L379.904,378.425 L379.278,378.53 Q378.756,378.53 378.756,378.738 Q378.756,378.842 377.4,379.051 Q376.044,379.155 375.731,378.842 Q375.314,378.53 374.792,378.425 Q374.166,378.217 373.853,377.33 Q373.54,376.443 373.28,376.443 Q373.019,376.443 372.706,375.922 Q372.393,375.296 372.08,375.191 Q371.767,375.087 371.767,374.774 Q371.767,374.461 371.663,374.461 Q371.454,374.461 370.62,373.679 Q369.785,372.897 369.681,372.584 Q369.576,372.166 369.264,372.166 Q368.951,372.166 368.846,371.749 Q368.742,371.228 368.429,371.019 Q368.116,370.915 367.751,370.602 Q367.386,370.289 367.125,369.871 Q366.864,369.454 366.76,369.141 Q366.447,368.307 366.186,368.307 Q365.925,368.307 365.508,369.246 Q364.987,370.184 364.778,370.289 Q364.465,370.393 364.465,370.706 Q364.465,371.019 364.361,371.019 Q364.152,371.019 363.735,371.436 Q363.318,371.853 362.9,372.271 Q362.483,372.688 362.483,372.792 Q362.483,373.001 362.17,373.105 Q361.753,373.21 361.596,373.731 Q361.44,374.253 360.605,374.409 Q359.771,374.566 359.771,374.722 Q359.771,374.879 359.041,375.609 Q358.311,376.339 358.102,376.339 Q357.685,376.339 355.807,378.112 Q355.39,378.53 355.077,378.53 Q354.66,378.53 354.555,378.842 Q354.138,379.468 353.043,379.729 Q351.947,379.99 351.217,379.677 Q350.696,379.364 350.643,378.947 Q350.591,378.53 351.009,378.425 Q351.426,378.321 351.426,378.008 Q351.426,377.695 352.365,377.278 Q353.199,376.965 353.303,376.548 Q353.512,376.339 353.877,376.339 Q354.242,376.339 354.555,375.713 Q354.66,375.504 354.868,375.139 Q355.077,374.774 355.39,374.513 Q355.703,374.253 355.807,374.253 Q355.911,374.253 356.329,373.94 Q356.537,373.627 357.789,372.897 Q359.562,371.749 359.562,370.184 Q359.562,369.35 360.71,369.037 Q361.231,368.828 361.544,368.202 Q361.857,367.681 362.379,367.264 Q362.796,366.951 362.9,366.325 Q363.005,365.699 362.744,365.021 Q362.483,364.343 362.066,364.238 Q361.649,364.134 361.649,363.717 Q361.649,363.613 361.336,363.195 Q361.023,362.778 360.605,362.413 Q360.188,362.048 359.98,362.048 Q359.771,362.048 359.667,361.631 Q359.562,361.318 358.415,360.17 Q357.267,359.023 356.85,358.918 Q356.433,358.71 356.746,357.875 Q356.85,357.458 357.372,357.354 Q357.893,357.249 358.206,357.562 Q358.415,357.875 359.249,358.084 Q360.084,358.188 360.918,359.231 Q361.857,360.17 362.118,360.17 Q362.379,360.17 362.692,360.587 Q363.109,361.005 363.735,361.109 Q364.465,361.213 364.987,361.735 Q365.508,362.361 366.395,362.309 Q367.282,362.257 367.49,362.1 Q367.699,361.944 367.803,361.213 Q368.012,360.379 368.377,360.17 Q368.742,359.962 368.846,359.231 Q368.951,358.605 369.368,358.293 Q369.785,358.084 369.785,357.771 Q369.785,357.354 370.411,356.728 Q371.037,355.998 371.037,355.685 Q371.037,355.372 371.35,355.059 Q372.08,354.433 371.454,353.807 Q371.246,353.494 370.202,353.703 Q369.368,353.911 365.613,354.016 Q361.962,354.224 361.753,354.537 Q361.544,354.85 359.249,355.059 Q354.138,355.58 353.408,354.954 Q353.095,354.642 353.043,354.068 Q352.99,353.494 353.303,353.285 Q353.616,353.077 355.963,352.92 Q358.311,352.764 359.145,352.399 Q359.98,352.034 362.17,352.034 L364.256,352.034 L364.987,351.303 L365.717,350.573 L365.717,348.591 Q365.717,346.609 365.195,345.566 Q364.256,343.793 364.882,343.167 z" fill="#000000"/>
    <path d="M508.675,308.483 Q508.767,308.063 509.552,308.092 Q510.337,308.122 511.184,308.515 Q512.14,309.01 512.975,308.986 Q513.706,308.964 514.24,309.367 Q514.771,309.665 516.132,309.73 Q517.284,309.801 517.657,310.052 Q518.03,310.302 518.051,311.033 Q518.066,311.555 517.475,312.774 Q516.883,313.993 516.57,314.003 Q516.361,314.009 516.315,314.219 Q516.269,314.429 516.213,316.103 Q516.058,317.989 515.874,318.831 Q515.695,319.881 516.171,320.076 Q516.647,320.271 519.78,320.18 Q523.435,320.074 523.686,319.701 Q523.936,319.328 524.658,318.994 Q525.377,318.555 525.475,318.343 Q525.571,318.026 526.403,317.898 Q527.131,317.772 528.163,317.324 L529.303,316.977 L530.47,317.57 Q531.741,318.161 531.968,318.781 Q532.422,320.022 531.31,321.309 L530.702,321.954 L523.287,322.169 Q515.977,322.381 515.565,322.602 Q515.154,322.823 515.378,323.339 Q515.605,323.96 515.529,326.732 Q515.452,329.504 515.157,330.139 Q514.761,330.883 514.77,331.196 Q514.779,331.509 515.146,331.551 Q515.513,331.592 515.817,331.27 Q516.226,330.945 516.754,331.138 Q517.181,331.439 519.896,331.361 Q522.611,331.282 523.646,330.938 Q524.685,330.699 525.105,330.791 Q525.523,330.779 526.46,330.647 Q527.603,330.405 528.331,330.279 Q529.268,330.148 529.26,329.887 Q529.252,329.626 529.762,329.193 Q530.272,328.76 530.266,328.551 Q530.26,328.342 531.091,328.161 Q531.922,327.98 532.226,327.658 Q532.826,326.7 535.439,326.728 Q537.215,326.677 537.543,327.19 Q537.767,327.706 538.137,327.852 Q538.507,327.998 538.937,328.404 Q539.477,329.015 539.52,330.477 L539.562,331.939 L538.84,332.274 Q538.014,332.611 537.643,332.413 Q537.271,332.215 532.312,332.411 Q527.353,332.607 527.046,332.825 Q526.84,332.936 525.169,332.984 Q523.6,332.925 523.351,333.351 Q523.102,333.776 522.957,335.975 Q522.922,338.38 522.618,338.702 Q522.516,338.81 522.183,339.917 Q521.849,341.024 521.861,341.442 Q521.885,342.277 523.661,342.226 Q524.914,342.189 525.236,342.493 Q525.559,342.798 527.75,342.682 Q529.942,342.566 530.655,341.918 Q531.37,341.375 531.463,340.954 Q531.659,340.53 531.973,340.521 Q532.39,340.509 532.489,340.297 Q532.689,339.978 533.111,340.122 Q533.533,340.267 533.757,340.783 Q534.089,341.4 534.304,341.603 Q534.411,341.704 534.85,342.423 Q535.185,343.145 535.504,343.345 Q535.719,343.548 535.848,344.38 Q535.979,345.317 535.568,345.538 Q534.538,346.09 523.973,345.77 L521.565,345.631 L521.233,345.014 Q521.003,344.289 520.257,343.788 Q518.983,343.093 518.943,341.736 Q518.928,341.213 518.604,340.857 Q518.28,340.501 518.061,338.364 Q517.843,336.228 517.411,335.77 Q516.98,335.312 516.965,334.79 Q516.931,333.642 515.875,333.254 Q515.239,332.959 514.832,333.337 Q514.425,333.714 513.064,333.649 Q511.704,333.584 511.593,333.379 Q511.48,333.068 511.168,333.13 Q510.856,333.191 510.656,333.51 Q510.352,333.833 509.618,333.75 Q508.147,333.479 507.035,334.765 Q506.531,335.407 506.67,336.605 Q506.809,337.803 507.024,338.006 Q507.565,338.617 506.956,339.262 Q506.443,339.59 506.884,340.361 Q507.324,341.132 508.061,341.32 Q508.586,341.409 508.823,342.343 Q509.056,343.173 509.369,343.163 Q509.578,343.157 510.223,343.766 Q510.867,344.374 511.087,344.734 Q511.306,345.093 512.043,345.281 Q512.569,345.37 512.73,345.522 Q512.891,345.674 512.909,346.301 Q513.041,347.238 512.728,347.247 Q512.414,347.256 512.062,347.736 Q511.711,348.217 511.502,348.223 Q511.293,348.229 510.78,348.557 Q510.159,348.784 510.184,349.62 Q510.202,350.247 510.008,350.775 Q509.811,351.199 509.973,351.351 Q510.134,351.503 514.001,351.495 L517.865,351.383 L518.372,350.845 Q518.879,350.308 519.088,350.302 Q519.505,350.29 520.481,349.687 Q521.456,349.083 521.45,348.875 Q521.441,348.561 522.163,348.227 Q522.885,347.892 523.676,348.131 Q524.466,348.369 524.686,348.728 Q524.905,349.088 525.219,349.079 Q525.427,349.073 525.648,349.484 Q525.768,350.003 527.574,350.996 Q528.529,351.491 528.335,352.019 Q528.243,352.44 527.333,353.512 Q526.424,354.583 526.163,354.591 Q525.901,354.598 525.909,354.859 Q525.917,355.12 525.296,355.348 Q524.673,355.47 524.473,355.79 Q524.378,356.106 524.02,356.378 Q523.662,356.649 523.671,356.963 Q523.68,357.276 522.952,357.401 Q521.705,357.647 521.747,359.109 Q521.762,359.631 520.747,360.653 Q519.731,361.676 519.366,361.686 Q519,361.697 518.699,362.124 Q518.503,362.548 517.679,362.99 Q516.343,363.76 516.036,363.978 Q515.728,364.196 515.639,364.721 Q515.556,365.455 515.249,365.673 Q514.435,366.428 516.034,367.532 Q516.992,368.131 517.106,368.441 Q517.112,368.65 517.539,368.951 Q517.966,369.252 517.975,369.566 Q517.984,369.879 518.822,369.959 Q519.768,370.141 519.986,370.448 Q520.207,370.86 520.521,370.851 Q520.834,370.841 521.162,371.354 Q521.491,371.868 522.225,371.951 Q522.854,372.037 523.177,372.341 Q524.153,373.567 526.567,373.915 Q528.035,374.081 528.465,374.487 Q528.895,374.893 529.629,374.976 Q530.363,375.059 530.477,375.369 Q530.692,375.572 531.326,375.815 Q531.96,376.058 532.39,376.463 Q533.575,377.683 536.195,377.921 Q537.555,377.986 537.77,378.188 Q537.988,378.496 538.302,378.486 Q538.615,378.477 538.833,378.785 Q539.051,379.092 540.405,378.948 Q541.864,378.801 542.607,379.198 Q543.351,379.594 544.186,379.57 Q545.857,379.521 546.194,380.348 Q546.526,380.965 546.171,381.341 Q545.816,381.717 543.626,381.885 Q541.538,381.946 539.366,382.741 Q537.191,383.431 537.093,383.643 Q536.785,383.861 535.95,383.885 Q535.114,383.91 534.81,384.232 Q534.614,384.656 533.486,385.42 Q532.359,386.184 531.001,386.224 L529.748,386.26 L528.673,385.246 Q527.491,384.131 526.745,383.63 Q525.787,383.031 525.464,382.727 Q525.139,382.318 524.93,382.324 Q524.617,382.333 523.223,381.119 Q521.62,379.912 521.509,379.706 Q521.19,379.506 520.241,379.22 Q519.403,379.14 518.815,378.687 Q518.227,378.233 518.214,377.816 Q518.208,377.607 517.992,377.352 Q517.775,377.097 517.559,376.842 Q517.343,376.587 517.077,376.438 Q516.811,376.289 516.707,376.292 Q516.289,376.304 516.065,375.788 Q515.841,375.272 515.58,375.279 Q515.319,375.287 514.886,374.777 Q514.453,374.267 514.244,374.273 Q514.035,374.279 513.799,373.345 Q513.671,372.513 513.195,372.318 Q512.719,372.122 512.697,371.391 Q512.673,370.556 512.457,370.301 Q512.24,370.046 511.617,370.168 Q511.095,370.184 510.995,370.343 Q510.895,370.503 510.704,371.136 Q510.621,371.87 510.469,372.031 Q510.317,372.192 509.693,372.315 Q508.861,372.443 508.868,372.705 Q508.876,372.966 508.172,373.927 Q507.471,374.992 507.475,375.097 Q507.481,375.306 506.759,375.64 Q505.932,375.978 505.434,376.828 Q504.829,377.577 504.313,377.801 Q503.898,377.918 503.702,378.342 Q503.502,378.661 503.189,378.67 Q502.98,378.676 502.165,379.432 Q501.456,380.184 501.142,380.193 Q500.934,380.199 500.734,380.518 Q500.43,380.841 499.806,380.963 Q499.287,381.083 498.471,381.786 Q497.655,382.489 497.662,382.698 Q497.674,383.116 496.316,383.155 Q495.69,383.173 495.696,383.382 Q495.705,383.696 494.892,384.503 Q494.079,385.311 493.766,385.32 Q493.453,385.329 493.36,385.75 Q493.268,386.17 493.164,386.173 Q492.955,386.179 492.033,386.833 Q491.213,387.38 490.43,387.402 Q489.646,387.425 489.453,387.953 Q489.259,388.482 488.638,388.709 Q488.122,388.933 488.128,389.142 Q488.135,389.35 487.253,389.585 Q486.371,389.82 485.757,390.256 Q484.122,391.557 483.397,391.787 Q482.881,392.011 482.264,392.343 Q481.858,392.773 481.026,392.902 Q480.301,393.132 479.892,393.457 Q478.98,394.424 477.506,394.049 Q476.98,393.96 476.95,392.915 Q476.923,391.976 477.54,391.644 Q478.158,391.313 478.471,391.303 Q478.784,391.294 479.763,390.796 Q480.741,390.297 481.045,389.974 Q481.451,389.545 481.973,389.529 Q482.391,389.517 482.801,389.244 Q483.211,388.971 483.202,388.658 Q483.196,388.449 483.509,388.44 Q483.823,388.431 484.643,387.884 Q485.463,387.338 485.881,387.326 Q486.194,387.316 486.19,387.16 Q486.185,387.003 487.214,386.451 Q488.243,385.898 488.237,385.689 Q488.231,385.48 488.698,385.362 Q489.165,385.244 489.257,384.824 Q489.353,384.507 490.18,384.222 Q491.008,383.936 491.87,383.023 Q492.732,382.11 492.941,382.104 Q493.15,382.097 493.347,381.674 Q493.543,381.25 494.373,381.017 Q495.202,380.784 495.294,380.363 Q495.583,379.518 496.929,379.061 Q497.34,378.84 497.433,378.419 Q497.633,378.1 497.841,378.094 Q498.05,378.088 498.811,377.282 Q499.571,376.476 499.565,376.267 Q499.565,376.267 499.918,375.839 Q500.272,375.41 500.679,375.033 Q501.086,374.655 501.19,374.652 Q501.295,374.649 501.39,374.333 Q501.483,373.912 503.952,372.586 Q504.57,372.255 504.564,372.046 Q504.555,371.732 504.862,371.514 Q505.271,371.189 505.414,370.715 Q505.557,370.24 506.266,369.488 Q506.469,369.273 506.823,368.844 Q507.176,368.416 507.173,368.312 Q507.582,367.986 507.404,365.483 Q507.071,361.207 505.778,359.886 Q505.456,359.582 505.162,358.441 Q504.867,357.3 504.867,357.3 Q503.7,356.707 503.289,356.927 Q503.083,357.038 502.997,357.668 Q502.91,358.297 502.299,358.838 Q501.691,359.482 501.698,359.743 Q501.706,360.005 501.497,360.011 Q501.288,360.017 500.683,360.766 Q500.077,361.515 499.881,361.939 Q499.785,362.255 499.367,362.267 Q499.054,362.276 498.446,362.921 Q497.942,363.563 497.629,363.572 Q497.211,363.584 495.911,365.608 Q495.514,366.351 494.894,366.578 Q494.584,366.692 494.124,367.071 Q493.665,367.45 493.31,367.826 Q492.955,368.202 492.961,368.411 Q492.967,368.62 492.657,368.733 Q492.347,368.847 491.688,369.545 Q491.029,370.244 491.035,370.453 Q491.041,370.662 490.626,370.778 Q490.11,371.002 489.394,371.546 Q488.681,372.193 488.473,372.2 Q488.264,372.206 488.168,372.522 Q488.073,372.838 487.557,373.062 Q487.041,373.286 487.05,373.6 Q487.059,373.913 486.448,374.453 Q485.836,374.994 485.421,375.11 Q484.902,375.23 484.398,375.872 Q483.683,376.415 483.474,376.421 Q483.265,376.427 482.964,376.854 Q482.764,377.173 482.299,377.344 Q481.833,377.514 481.129,378.475 L480.423,379.332 L478.856,379.377 Q477.707,379.41 477.442,379.261 Q477.176,379.112 477.149,378.172 Q477.131,377.546 477.856,377.316 Q478.473,376.984 478.569,376.668 Q478.768,376.349 479.18,376.128 Q480.519,375.462 482.452,373.629 Q482.858,373.199 483.323,373.029 Q483.788,372.858 484.805,371.888 Q485.819,370.813 486.185,370.803 Q486.55,370.792 486.745,370.316 Q486.941,369.84 487.251,369.727 Q487.767,369.503 487.764,369.398 Q487.758,369.189 488.323,368.859 Q488.888,368.529 488.879,368.216 Q488.87,367.903 489.181,367.789 Q489.592,367.568 489.684,367.147 Q489.878,366.619 490.191,366.61 Q490.4,366.604 491,365.646 Q491.599,364.688 492.113,364.412 Q492.628,364.135 492.62,363.874 Q492.613,363.613 493.831,362.376 Q495.049,361.139 495.045,360.982 Q495.04,360.825 495.811,360.385 Q496.583,359.944 496.669,359.315 Q496.952,358.261 497.572,358.034 Q498.091,357.915 498.583,356.855 Q499.078,355.9 499.892,355.145 Q500.706,354.39 500.799,353.969 Q500.891,353.548 501.607,353.005 Q502.633,352.348 502.811,351.297 Q502.901,350.772 503.315,350.656 Q503.626,350.542 503.718,350.121 Q503.81,349.701 504.225,349.584 Q504.842,349.253 504.818,348.417 Q504.803,347.895 505.215,347.674 Q505.522,347.456 505.859,346.453 Q506.195,345.451 506.177,344.824 Q506.141,343.571 505.401,343.279 Q505.084,343.183 504.052,343.631 Q502.919,344.187 502.399,344.307 Q501.051,344.659 500.67,345.925 Q500.583,346.554 499.917,346.992 Q499.25,347.429 498.567,347.292 Q497.883,347.155 497.321,347.59 Q496.759,348.024 496.571,348.761 Q496.285,349.71 496.181,349.713 Q495.972,349.719 495.361,350.26 Q494.854,350.797 494.344,351.23 Q493.932,351.451 493.526,351.881 Q493.327,352.2 493.013,352.209 Q492.7,352.218 492.711,352.584 Q492.721,352.949 492.059,353.543 Q491.397,354.137 490.982,354.254 Q490.359,354.377 490.366,354.638 Q490.374,354.899 489.446,355.344 Q488.623,355.786 488.423,356.105 Q488.435,356.523 487.861,356.539 Q487.286,356.556 487.188,356.768 Q487.093,357.084 486.779,357.094 Q486.571,357.1 486.577,357.308 Q486.586,357.622 486.171,357.738 Q485.861,357.852 485.506,358.228 Q485.151,358.604 484.733,358.616 Q484.316,358.628 484.322,358.837 Q484.331,359.15 483.517,359.906 Q483.212,360.228 482.297,361.091 Q481.79,361.628 481.163,361.646 Q480.641,361.662 480.534,361.56 Q480.426,361.459 480.411,360.937 Q480.285,360.209 480.798,359.88 Q481.207,359.555 481.404,359.131 Q481.496,358.71 481.914,358.698 Q482.227,358.689 482.734,358.152 Q483.137,357.617 483.708,357.496 Q484.279,357.375 484.269,357.01 Q484.258,356.644 484.774,356.42 Q485.189,356.304 485.852,355.762 Q486.516,355.22 486.51,355.011 Q486.501,354.698 487.014,354.369 Q487.527,354.041 488.443,353.178 Q489.358,352.315 489.871,351.987 Q490.28,351.661 490.274,351.453 Q490.268,351.244 490.825,350.653 Q491.383,350.062 491.798,349.945 Q492.212,349.828 492.355,349.354 Q492.498,348.879 493.413,347.964 Q494.327,347.049 494.467,346.471 Q494.607,345.892 495.021,345.775 Q495.433,345.554 495.425,345.293 Q495.418,345.032 495.983,344.702 Q496.548,344.372 496.542,344.163 Q496.533,343.85 497.052,343.73 Q497.571,343.611 497.664,343.19 Q497.756,342.769 498.017,342.762 Q498.278,342.754 498.466,342.017 Q498.743,340.755 499.984,340.301 Q500.294,340.187 500.383,339.662 Q500.469,339.032 500.979,338.599 Q501.486,338.062 501.48,337.853 Q501.471,337.54 501.886,337.423 Q502.298,337.202 502.258,335.845 L502.219,334.487 L501.482,334.299 Q500.741,334.007 499.808,334.244 Q498.769,334.483 497.049,334.637 Q495.329,334.792 495.219,334.586 Q495.007,334.487 494.694,334.497 Q494.276,334.509 493.947,333.996 L493.622,333.587 L492.915,334.444 Q492.208,335.3 491.745,335.523 Q491.281,335.745 491.096,336.587 Q490.807,337.431 490.392,337.548 Q490.082,337.662 490.094,338.079 Q490.103,338.393 489.394,339.145 Q488.684,339.897 488.371,339.906 Q488.057,339.915 488.072,340.437 Q488.112,341.795 487.59,341.81 Q487.276,341.819 487.184,342.24 Q487.092,342.661 486.474,342.992 Q485.961,343.321 485.969,343.582 Q485.976,343.843 485.668,344.009 Q485.359,344.174 485.082,345.437 Q484.802,346.595 484.447,346.971 Q484.092,347.347 483.908,348.188 Q483.828,349.027 483.622,349.137 Q483.416,349.248 483.491,350.029 Q483.566,350.811 483.781,351.014 Q484.533,351.724 484.271,353.508 Q484.191,354.347 483.62,354.468 Q483.049,354.589 483.056,354.85 Q483.064,355.111 482.657,355.489 Q482.25,355.866 482.259,356.18 Q482.265,356.388 481.744,356.456 Q481.223,356.523 480.595,356.489 Q479.967,356.455 479.543,356.259 Q478.911,356.068 478.487,355.871 Q477.959,355.677 477.901,353.693 Q477.877,352.858 477.556,352.606 Q477.235,352.354 476.987,351.002 Q476.735,349.546 476.362,349.296 Q475.989,349.045 475.537,347.857 Q475.084,346.668 475.341,346.504 Q475.597,346.339 475.637,345.92 Q475.677,345.501 476.611,345.265 Q479.612,344.237 480.426,343.482 Q481.139,342.834 481.348,342.828 Q481.557,342.822 481.754,342.398 Q481.849,342.082 482.765,341.219 Q483.788,340.457 483.779,340.144 Q483.77,339.831 483.978,339.825 Q484.187,339.819 485.1,338.852 Q486.012,337.884 486.836,337.442 Q487.659,337 487.853,336.472 Q488.046,335.944 488.87,335.502 Q489.693,335.06 489.881,334.323 Q489.964,333.589 490.277,333.58 Q490.59,333.571 490.944,333.142 Q491.297,332.714 491.506,332.708 Q491.715,332.702 492.121,332.272 Q492.526,331.842 492.523,331.738 Q492.52,331.633 493.227,330.777 Q493.829,329.923 493.921,329.502 Q494.121,329.183 494.382,329.175 Q494.643,329.168 494.837,328.639 Q495.034,328.216 495.45,328.151 Q495.866,328.087 495.983,328.502 Q496.096,328.812 496.019,329.755 Q495.733,330.704 495.897,330.96 Q496.062,331.217 497.219,331.497 Q498.589,331.875 499.207,331.543 Q499.821,331.108 500.251,331.513 Q500.573,331.817 503.239,331.844 Q505.905,331.871 507.114,332.098 Q508.322,332.324 508.725,331.79 Q509.131,331.36 508.802,330.847 Q508.581,330.435 508.864,329.382 Q509.251,328.325 508.908,327.29 Q508.564,326.255 508.429,325.214 Q508.298,324.277 508.135,324.072 Q507.972,323.868 507.238,323.785 Q506.397,323.6 506.185,323.502 Q505.865,323.302 504.723,323.544 Q503.58,323.787 502.53,323.608 Q501.375,323.433 499.922,323.788 Q498.469,324.144 497.729,323.852 Q496.989,323.56 496.984,323.403 Q496.98,323.247 496.452,323.053 Q495.285,322.46 497.036,321.573 Q498.169,321.017 498.906,321.205 Q499.751,321.494 500.479,321.368 Q502.346,320.896 503.815,321.062 Q504.76,321.244 506.643,321.294 L508.108,321.356 L508.403,320.72 Q508.699,320.084 508.677,319.353 Q508.656,318.622 508.859,318.407 Q509.062,318.192 509.029,315.267 Q508.996,312.341 508.788,310.57 Q508.58,308.8 508.675,308.483 z M512.64,319.029 Q511.887,318.319 511.688,318.639 Q511.485,318.854 511.967,319.258 Q512.449,319.662 512.458,319.975 Q512.467,320.288 512.676,320.282 Q512.989,320.273 513.035,320.063 Q513.082,319.852 512.97,319.594 Q512.858,319.336 512.64,319.029 z M514.125,323.376 Q514.539,323.259 514.53,322.946 Q514.521,322.633 513.79,322.654 Q512.328,322.696 513.495,323.29 Q513.814,323.489 514.125,323.376 z M503.713,339.147 Q503.172,338.536 502.964,338.542 Q502.755,338.548 502.561,339.076 Q502.081,340.553 503.126,340.523 Q503.543,340.511 504.007,340.288 Q504.471,340.066 504.465,339.857 Q504.462,339.752 503.713,339.147 z M508.808,349.033 Q508.691,348.618 508.28,348.839 Q508.178,348.947 508.181,349.051 Q508.19,349.364 508.504,349.355 z M505.297,350.494 Q505.505,350.487 505.493,350.07 Q505.481,349.652 505.272,349.658 Q505.063,349.664 505.076,350.082 Q505.088,350.5 505.297,350.494 z M512.363,352.692 Q511.417,352.511 509.223,352.522 Q507.028,352.534 506.93,352.745 Q506.936,352.954 507.125,355.875 Q507.413,358.585 507.858,359.512 Q508.303,360.44 509.682,361.132 Q511.058,361.719 511.675,361.387 Q512.191,361.163 512.812,360.936 Q513.429,360.605 513.525,360.288 Q513.721,359.865 514.431,359.112 Q515.138,358.256 515.427,357.411 Q515.608,356.465 515.866,356.353 Q516.124,356.241 516.118,356.032 Q516.112,355.823 516.925,355.016 Q517.738,354.208 517.894,354.204 Q518.051,354.199 518.042,353.886 Q518.027,353.364 515.312,353.443 Q513.432,353.497 513.32,353.239 Q513.208,352.981 512.363,352.692 z M522.047,355.024 Q522.363,355.119 522.354,354.806 Q522.345,354.493 521.927,354.505 Q521.405,354.52 521.727,354.824 z M518.467,357.741 Q517.611,357.034 517.641,358.078 Q517.653,358.496 518.123,358.482 Q518.593,358.469 518.742,358.203 Q518.891,357.938 518.467,357.741 z M519.448,373.495 Q519.239,373.501 518.812,373.2 Q518.296,373.424 518.323,374.363 Q518.347,375.199 518.509,375.351 Q518.67,375.503 519.281,374.963 Q519.484,374.748 519.632,374.43 Q519.779,374.112 519.718,373.8 Q519.656,373.489 519.448,373.495 z M530.49,379.445 Q530.49,379.445 530.279,379.347 L529.968,379.46 Q530.285,379.556 530.49,379.445 z M481.082,315.661 Q481.063,315.034 481.684,314.807 Q482.304,314.58 482.624,314.78 Q483.361,314.967 486.5,315.085 Q486.709,315.079 487.139,315.485 Q487.568,315.89 488.511,315.967 Q490.502,316.119 490.514,316.536 Q490.52,316.745 490.893,316.996 Q491.266,317.246 491.284,317.873 Q491.302,318.499 491.652,319.743 Q492.106,320.984 491.878,322.141 Q491.651,323.297 491.024,323.315 Q490.92,323.318 490.827,323.739 Q490.735,324.16 490.27,324.33 Q489.804,324.5 489.5,324.823 Q489.199,325.25 488.107,325.438 Q487.015,325.627 486.382,325.436 Q485.75,325.245 484.998,324.535 Q484.245,323.826 483.911,323.104 Q483.579,322.486 483.208,320.511 Q482.945,318.637 482.515,318.232 Q482.085,317.826 482.079,317.617 Q482.073,317.409 481.585,316.796 Q481.097,316.183 481.082,315.661 z" fill="#000000"/>
    <g>
      <path d="M32.862,297.935 L138.478,297.935 L138.478,403.551 L32.862,403.551 L32.862,297.935 z" fill-opacity="0" stroke="#000000" stroke-width="2" stroke-opacity="0.2"/>
      <path d="M32.862,297.935 L138.478,403.551" fill-opacity="0" stroke="#000000" stroke-width="2" stroke-opacity="0.2"/>
      <path d="M138.478,297.935 L32.862,403.551" fill-opacity="0" stroke="#000000" stroke-width="2" stroke-opacity="0.2"/>
      <path d="M85.67,297.935 L85.67,403.551" fill-opacity="0" stroke="#000000" stroke-width="2" stroke-opacity="0.2"/>
      <path d="M32.862,350.743 L138.478,350.743" fill-opacity="0" stroke="#000000" stroke-width="2" stroke-opacity="0.2"/>
    </g>
    <g>
      <path d="M175.411,297.935 L281.028,297.935 L281.028,403.551 L175.411,403.551 L175.411,297.935 z" fill-opacity="0" stroke="#000000" stroke-width="2" stroke-opacity="0.2"/>
      <path d="M175.411,297.935 L281.028,403.551" fill-opacity="0" stroke="#000000" stroke-width="2" stroke-opacity="0.2"/>
      <path d="M281.028,297.935 L175.411,403.551" fill-opacity="0" stroke="#000000" stroke-width="2" stroke-opacity="0.2"/>
      <path d="M228.219,297.935 L228.219,403.551" fill-opacity="0" stroke="#000000" stroke-width="2" stroke-opacity="0.2"/>
      <path d="M175.411,350.743 L281.028,350.743" fill-opacity="0" stroke="#000000" stroke-width="2" stroke-opacity="0.2"/>
    </g>
    <g>
      <path d="M317.548,297.935 L423.165,297.935 L423.165,403.551 L317.548,403.551 L317.548,297.935 z" fill-opacity="0" stroke="#000000" stroke-width="2" stroke-opacity="0.2"/>
      <path d="M317.548,297.935 L423.165,403.551" fill-opacity="0" stroke="#000000" stroke-width="2" stroke-opacity="0.2"/>
      <path d="M423.165,297.935 L317.548,403.551" fill-opacity="0" stroke="#000000" stroke-width="2" stroke-opacity="0.2"/>
      <path d="M370.356,297.935 L370.356,403.551" fill-opacity="0" stroke="#000000" stroke-width="2" stroke-opacity="0.2"/>
      <path d="M317.548,350.743 L423.165,350.743" fill-opacity="0" stroke="#000000" stroke-width="2" stroke-opacity="0.2"/>
    </g>
    <g>
      <path d="M458.754,297.935 L564.371,297.935 L564.371,403.551 L458.754,403.551 L458.754,297.935 z" fill-opacity="0" stroke="#000000" stroke-width="2" stroke-opacity="0.2"/>
      <path d="M458.754,297.935 L564.371,403.551" fill-opacity="0" stroke="#000000" stroke-width="2" stroke-opacity="0.2"/>
      <path d="M564.371,297.935 L458.754,403.551" fill-opacity="0" stroke="#000000" stroke-width="2" stroke-opacity="0.2"/>
      <path d="M511.562,297.935 L511.562,403.551" fill-opacity="0" stroke="#000000" stroke-width="2" stroke-opacity="0.2"/>
      <path d="M458.754,350.743 L564.371,350.743" fill-opacity="0" stroke="#000000" stroke-width="2" stroke-opacity="0.2"/>
    </g>
  </g>
</svg>
