<?xml version="1.0" standalone="no"?>
<!DOCTYPE svg PUBLIC "-//W3C//DTD SVG 20010904//EN"
 "http://www.w3.org/TR/2001/REC-SVG-20010904/DTD/svg10.dtd">
<svg version="1.0" xmlns="http://www.w3.org/2000/svg"
 width="512.000000pt" height="512.000000pt" viewBox="0 0 512.000000 512.000000"
 preserveAspectRatio="xMidYMid meet">
<metadata>
Created by potrace 1.16, written by Peter Selinger 2001-2019
</metadata>
<g transform="translate(0.000000,512.000000) scale(0.100000,-0.100000)"
fill="#BD5948EE" stroke="none">
<path d="M4255 4743 c-48 -19 -69 -23 -105 -18 -51 8 -116 11 -310 14 -74 1
-152 7 -172 13 -34 10 -40 8 -70 -17 -32 -27 -35 -28 -128 -22 -52 3 -107 10
-121 15 -18 7 -53 6 -117 -3 -104 -16 -225 -10 -260 13 -21 14 -26 13 -51 -6
-26 -19 -44 -21 -207 -23 -99 -1 -230 1 -293 4 -102 5 -116 4 -140 -14 -22
-16 -32 -17 -61 -9 -19 6 -84 10 -145 9 -60 -1 -161 -1 -223 1 -76 1 -117 -2
-127 -10 -9 -8 -27 -10 -47 -5 -86 18 -136 17 -183 -4 -63 -28 -120 -27 -170
4 -51 32 -62 31 -98 -2 l-28 -28 -219 0 -219 0 -30 -29 c-28 -27 -33 -28 -88
-21 -94 13 -200 10 -218 -5 -18 -15 -75 -122 -75 -141 0 -6 -12 -40 -26 -77
-26 -64 -27 -73 -29 -301 -1 -130 -6 -255 -10 -279 -5 -26 -3 -65 5 -100 13
-63 3 -124 -28 -172 -24 -37 -28 -341 -5 -385 9 -16 24 -47 34 -67 12 -23 29
-40 43 -44 63 -15 71 -73 20 -140 -24 -31 -26 -39 -18 -82 4 -26 8 -90 8 -144
-1 -89 -2 -98 -27 -128 -31 -36 -34 -78 -15 -173 12 -58 12 -60 -20 -121 l-33
-61 21 -53 c16 -42 21 -82 24 -195 3 -115 8 -153 25 -202 12 -33 27 -87 32
-120 7 -45 16 -65 35 -81 25 -21 43 -73 44 -127 0 -16 9 -40 20 -54 20 -25 26
-76 14 -107 -5 -13 -16 -15 -55 -10 -40 5 -53 3 -69 -11 -24 -21 -25 -37 -6
-107 20 -76 24 -84 52 -96 25 -12 27 -21 28 -174 1 -43 6 -62 22 -80 12 -12
29 -37 38 -55 20 -39 31 -45 138 -79 45 -14 93 -32 106 -40 12 -8 41 -19 65
-24 23 -4 62 -16 86 -25 25 -9 72 -17 105 -17 50 -1 62 3 78 22 10 13 20 21
21 19 2 -2 14 -19 26 -37 36 -52 127 -80 214 -67 35 6 61 20 113 64 37 31 78
63 93 72 19 12 27 26 32 58 6 44 17 57 58 68 33 8 62 -28 59 -74 -2 -25 4 -37
20 -49 12 -8 29 -28 37 -44 11 -22 29 -33 70 -46 54 -17 58 -17 103 1 26 10
76 20 112 23 57 3 73 -1 125 -27 l60 -30 25 24 c34 33 44 32 69 -10 11 -19 27
-35 36 -35 23 0 67 24 89 49 27 29 45 26 91 -14 49 -43 72 -43 153 -5 62 29
66 30 240 31 97 1 198 -2 223 -6 30 -4 62 -2 96 8 27 8 61 13 75 10 16 -3 34
3 54 19 29 24 77 48 95 48 5 0 24 -14 41 -31 18 -17 45 -33 60 -36 16 -3 39
-18 53 -34 29 -35 41 -36 67 -4 24 31 35 31 64 4 18 -17 30 -20 57 -15 48 9
71 38 77 99 4 38 9 53 22 55 12 2 19 -5 23 -25 12 -55 16 -57 131 -69 60 -6
126 -19 148 -28 58 -26 85 -19 102 29 7 22 18 41 23 43 6 2 26 14 45 27 20 13
51 27 70 31 20 3 41 12 47 20 6 8 29 17 51 20 26 5 45 15 56 31 9 14 25 32 35
41 10 10 33 32 51 50 28 28 37 31 58 23 47 -18 61 5 63 95 1 70 5 88 39 155
l38 76 -1 160 c-1 88 -6 175 -12 194 -5 19 -7 58 -3 86 6 48 3 57 -26 102 -30
48 -31 51 -15 75 24 37 12 126 -17 126 -56 0 -69 35 -44 115 l13 40 13 -48
c16 -61 39 -75 70 -42 23 24 23 25 7 81 -14 48 -15 68 -5 126 11 59 10 75 -5
121 -10 28 -22 76 -27 105 -5 30 -13 58 -16 64 -4 6 -10 47 -15 91 -8 79 -7
83 21 133 40 70 42 140 4 190 -26 33 -27 38 -19 112 4 42 7 87 7 100 -1 12 -2
70 -2 130 -1 59 -6 131 -12 160 -8 35 -8 59 -1 75 6 14 8 110 4 267 -6 227 -8
248 -29 287 -27 52 -28 112 -2 163 26 51 25 66 -6 134 -19 42 -24 66 -20 90 8
43 0 64 -34 81 -23 12 -29 25 -40 77 -10 52 -19 69 -51 100 -23 22 -50 38 -64
38 -13 0 -37 11 -54 25 -20 17 -51 29 -92 36 -35 5 -65 12 -68 14 -3 2 -33 -8
-66 -22z m-917 -126 c2 -10 -3 -17 -12 -17 -10 0 -16 9 -16 21 0 24 23 21 28
-4z m-690 -50 c2 -28 -1 -37 -12 -37 -18 0 -31 42 -22 66 10 27 31 9 34 -29z
m862 -28 c0 -18 -25 -37 -36 -27 -2 3 0 17 6 32 11 30 30 27 30 -5z m-620 -84
c0 -16 -11 -30 -35 -45 -61 -38 -45 -61 42 -61 41 0 64 5 83 20 23 16 38 19
86 15 33 -3 73 -13 91 -22 26 -13 38 -14 72 -4 22 7 51 10 65 6 13 -3 35 0 48
7 27 15 224 13 303 -3 67 -13 543 -26 675 -18 22 2 46 -3 54 -9 27 -23 41
-247 32 -516 -3 -82 -2 -192 4 -242 5 -53 5 -106 0 -123 -5 -17 -4 -129 2
-263 7 -167 7 -256 -1 -317 -7 -47 -13 -130 -14 -185 -2 -90 1 -105 24 -155
36 -74 48 -158 49 -330 0 -80 3 -309 7 -510 7 -418 7 -409 -2 -593 l-7 -137
-52 -35 -52 -34 -174 1 c-243 1 -405 -9 -502 -31 -78 -18 -245 -35 -313 -33
-117 4 -190 0 -214 -12 -57 -29 -173 -43 -331 -40 -243 5 -264 7 -295 32 -35
27 -93 29 -126 3 -37 -28 -115 -36 -399 -43 -73 -2 -132 3 -195 16 -95 21 -97
21 -274 10 -77 -4 -131 -2 -165 6 -45 10 -57 10 -101 -8 -78 -30 -201 -55
-222 -44 -10 5 -63 13 -118 17 -55 4 -117 14 -139 23 -35 14 -41 14 -66 -2
-28 -16 -29 -16 -44 6 -22 31 -20 74 5 107 29 39 29 114 1 161 -18 31 -20 49
-18 160 1 69 -1 188 -6 265 -9 141 -9 215 -7 650 1 132 -4 299 -10 370 -11
120 -10 134 7 186 22 62 18 117 -17 229 -17 54 -18 66 -6 94 34 79 39 169 22
365 -15 169 -15 191 -1 236 19 60 12 224 -12 289 -28 74 -28 76 -2 104 49 52
42 128 -16 181 -30 28 -34 66 -10 92 16 17 18 18 45 2 23 -14 36 -15 75 -6 36
8 60 8 98 -2 30 -8 79 -11 121 -8 39 2 131 6 205 7 116 3 152 8 254 36 l119
32 181 -6 c100 -4 321 -8 491 -9 l310 -2 52 33 c40 26 59 32 93 30 38 -3 45 0
60 27 15 27 23 31 73 35 31 3 62 11 68 17 16 16 29 7 29 -22z m-2135 -25 c-3
-5 -15 -10 -26 -10 -10 0 -19 5 -19 10 0 6 12 10 26 10 14 0 23 -4 19 -10z
m3825 -2930 c0 -5 -5 -10 -11 -10 -5 0 -7 5 -4 10 3 6 8 10 11 10 2 0 4 -4 4
-10z m-1730 -815 c0 -19 -13 -25 -29 -15 -19 11 -6 41 14 34 8 -3 15 -12 15
-19z m-1766 -80 l-7 -29 -9 24 c-11 29 -2 58 13 43 6 -6 7 -22 3 -38z"/>
<path d="M2970 4040 c-36 -4 -86 -17 -111 -30 l-45 -22 -52 26 c-54 27 -118
34 -153 16 -14 -8 -19 -21 -19 -55 0 -51 25 -75 75 -73 17 0 57 -6 91 -16 54
-14 65 -15 95 -2 29 12 45 12 94 3 52 -10 61 -16 69 -40 8 -22 6 -39 -8 -75
-10 -26 -20 -64 -23 -84 -4 -33 -1 -42 31 -74 35 -35 39 -36 85 -30 37 5 63 1
103 -14 51 -19 58 -19 91 -5 50 21 90 19 122 -7 25 -19 31 -20 59 -9 53 22
167 50 182 44 50 -19 113 52 125 143 9 69 70 148 127 165 48 14 106 -9 130
-51 9 -17 22 -30 28 -30 19 0 44 47 44 80 0 48 -13 64 -83 99 -59 30 -71 32
-123 27 -81 -9 -126 -9 -215 -1 -74 7 -76 7 -110 -22 -52 -45 -64 -46 -139
-13 -47 21 -85 30 -122 30 -29 1 -70 7 -91 15 -29 10 -47 11 -68 3 -20 -7 -39
-7 -60 1 -18 6 -39 10 -48 10 -9 -1 -45 -5 -81 -9z m379 -99 c26 -35 65 -44
150 -31 49 7 70 6 90 -5 34 -17 57 -44 65 -76 5 -24 -2 -33 -63 -83 -69 -56
-95 -65 -133 -45 -15 8 -32 7 -68 -5 -27 -9 -66 -16 -88 -16 -35 0 -44 6 -95
64 -37 42 -57 73 -57 90 0 49 103 135 162 136 9 0 26 -13 37 -29z"/>
<path d="M1512 3975 c-34 -8 -67 -9 -91 -4 -41 9 -157 -9 -230 -36 -29 -11
-58 -14 -86 -9 -38 5 -45 3 -58 -17 -8 -13 -18 -41 -21 -61 -5 -30 -3 -41 14
-58 26 -26 36 -25 82 6 37 26 40 26 215 26 98 0 191 -4 208 -9 17 -6 38 -23
49 -43 19 -33 19 -33 0 -68 -16 -30 -29 -39 -79 -54 -50 -15 -72 -16 -145 -7
-163 19 -233 21 -280 7 -51 -16 -65 -37 -75 -114 -9 -62 5 -80 69 -89 50 -8
174 18 221 47 17 10 46 18 65 19 19 1 46 4 60 8 14 4 51 3 82 -2 53 -8 62 -6
110 20 32 17 58 40 67 58 47 93 115 155 169 155 11 0 37 9 56 21 38 22 81 20
124 -7 19 -12 22 -23 22 -76 0 -33 5 -77 11 -97 12 -41 5 -55 -69 -147 -29
-37 -39 -42 -83 -46 -32 -3 -58 -13 -72 -27 -29 -26 -50 -26 -107 0 -66 30
-113 29 -145 -3 -34 -35 -68 -41 -146 -29 -140 23 -240 6 -296 -51 -127 -131
-171 -216 -195 -378 -10 -70 -11 -102 -6 -227 1 -27 -2 -78 -7 -114 -6 -52 -4
-77 10 -118 15 -46 20 -99 26 -281 0 -14 -1 -241 -3 -505 -3 -369 -1 -486 8
-506 7 -14 31 -42 54 -62 30 -28 46 -36 64 -31 14 3 29 -1 39 -11 41 -40 169
-63 202 -35 21 18 19 73 -5 103 -13 16 -36 29 -57 33 -33 6 -40 4 -67 -28 -59
-68 -83 -56 -93 44 -5 58 -3 69 17 96 34 46 33 112 -2 149 -35 36 -36 72 -3
111 24 28 25 36 25 155 0 69 -5 138 -11 154 -6 15 -15 50 -20 77 -8 44 -6 55
16 98 26 49 26 49 9 108 -10 36 -13 69 -9 82 4 13 9 91 10 173 2 129 0 153
-15 175 -9 14 -20 53 -24 87 -6 52 -3 74 18 135 14 40 28 102 31 138 13 139
15 146 53 188 20 23 69 57 107 78 l70 36 290 2 c288 2 290 2 345 27 30 14 80
36 110 48 39 15 63 33 83 61 33 47 45 49 77 15 25 -27 67 -33 101 -15 13 8 19
21 19 46 0 25 7 42 25 59 48 43 59 139 25 213 -10 23 -22 42 -25 42 -19 0 -45
-91 -45 -156 0 -63 -2 -72 -22 -81 -42 -20 -56 -22 -74 -8 -17 12 -19 31 -19
202 0 188 0 188 -28 235 -41 69 -106 85 -211 52 -49 -15 -55 -15 -131 6 -96
27 -317 35 -403 15z"/>
<path d="M3902 3660 c-34 -14 -52 -68 -52 -159 0 -98 -4 -102 -154 -151 -60
-19 -119 -45 -133 -58 -24 -22 -25 -27 -24 -140 2 -252 -3 -345 -23 -381 -12
-23 -16 -45 -12 -70 16 -96 27 -253 30 -416 2 -99 8 -195 14 -212 6 -18 27
-53 46 -77 31 -37 43 -44 81 -48 24 -3 62 -15 83 -26 22 -11 60 -23 85 -27 50
-8 69 -24 110 -97 27 -46 27 -48 23 -217 -3 -162 -2 -173 21 -228 14 -32 29
-74 35 -93 14 -47 56 -118 77 -130 20 -10 34 -3 51 29 19 37 4 344 -20 391
-21 42 -42 306 -28 355 5 18 3 62 -4 110 -6 44 -11 91 -10 105 8 157 5 197
-23 284 l-28 89 24 44 c23 41 24 53 23 196 -1 144 -2 154 -28 201 -37 69 -37
174 -1 242 30 57 30 59 5 107 -22 41 -25 98 -9 166 13 57 -11 125 -53 147 -15
8 -28 20 -28 28 0 15 -32 46 -46 45 -5 0 -19 -4 -32 -9z m11 -521 c18 -19 27
-38 24 -50 -3 -11 1 -45 9 -77 19 -79 18 -253 -1 -299 -20 -48 -19 -86 5 -131
19 -33 20 -48 14 -157 -4 -75 -11 -128 -20 -142 -17 -27 -18 -76 -2 -120 15
-40 7 -58 -42 -90 -62 -43 -140 -19 -140 42 0 13 -9 48 -21 77 -23 58 -21 103
7 161 15 32 15 39 -7 123 -19 77 -22 111 -20 247 1 87 6 181 11 209 6 28 10
83 10 122 0 80 3 86 45 110 43 23 93 14 128 -25z"/>
<path d="M2783 3593 c-49 -9 -69 -84 -38 -143 35 -68 36 -76 6 -107 -23 -25
-29 -42 -34 -101 -7 -74 -1 -105 33 -152 25 -35 26 -90 1 -138 -17 -33 -20
-64 -22 -257 -2 -211 -2 -221 19 -255 26 -42 27 -76 5 -146 -16 -50 -15 -56 2
-114 18 -60 18 -61 -3 -99 -30 -53 -29 -120 2 -158 22 -26 23 -35 21 -141 -2
-90 -6 -116 -19 -131 -12 -13 -20 -49 -26 -115 -5 -53 -14 -105 -20 -116 -15
-28 -12 -56 9 -99 12 -23 32 -43 50 -51 17 -7 36 -18 42 -26 6 -8 29 -14 50
-14 35 0 41 4 56 35 15 30 15 47 6 123 -6 48 -10 159 -9 247 1 160 1 160 31
208 17 26 44 56 61 66 28 17 32 24 38 85 4 37 4 71 1 76 -8 13 -56 13 -88 1
-30 -12 -70 7 -76 34 -2 11 5 34 15 53 17 32 17 35 -6 105 -30 94 -38 256 -17
382 12 77 13 100 1 155 -17 85 -21 384 -5 404 21 25 74 28 124 7 44 -19 46
-22 56 -78 6 -32 19 -80 28 -108 15 -43 18 -94 18 -380 0 -323 0 -331 -22
-373 -26 -49 -29 -100 -8 -128 8 -10 15 -37 15 -59 1 -57 39 -131 65 -127 76
13 90 50 80 217 -8 142 -8 167 1 305 7 123 8 178 2 336 -3 96 -2 102 25 140
33 49 34 62 4 106 -20 28 -25 52 -30 138 -8 138 -11 141 -152 151 -74 5 -115
13 -138 26 -30 18 -32 23 -33 81 -2 69 -30 126 -67 136 -12 3 -24 5 -27 5 -3
-1 -15 -4 -27 -6z"/>
<path d="M2396 3217 c-34 -28 -30 -53 10 -63 38 -10 59 7 59 47 0 43 -28 49
-69 16z"/>
<path d="M2010 3092 c-9 -4 -32 -19 -51 -34 -19 -15 -60 -34 -91 -42 -31 -8
-67 -22 -81 -31 -23 -15 -28 -14 -78 6 -39 15 -66 19 -97 15 -24 -3 -51 -2
-60 3 -9 5 -52 11 -95 13 -76 5 -78 5 -122 -30 -39 -30 -45 -39 -45 -73 0 -31
8 -47 42 -84 39 -42 44 -45 92 -43 67 3 110 -18 114 -55 5 -38 -23 -67 -63
-67 -39 0 -96 -23 -115 -45 -8 -10 -25 -21 -37 -26 -49 -18 -55 -99 -12 -153
28 -36 101 -36 167 -1 26 14 52 25 58 25 25 0 64 43 75 83 8 32 28 58 85 112
41 39 80 81 87 95 15 29 90 61 128 54 15 -3 52 2 83 11 45 13 63 14 90 5 80
-26 104 -71 70 -128 -20 -34 -80 -81 -114 -89 -14 -3 -42 -21 -63 -39 -25 -23
-47 -34 -67 -34 -17 0 -41 -7 -55 -16 -17 -11 -36 -14 -68 -9 -40 6 -48 4 -76
-22 -28 -24 -34 -38 -41 -98 -5 -39 -9 -93 -10 -122 0 -70 -15 -100 -57 -114
-41 -13 -109 1 -160 32 -67 42 -111 9 -121 -91 -3 -36 1 -51 18 -73 20 -25 28
-28 54 -22 64 14 178 16 258 4 46 -7 119 -14 163 -16 44 -1 104 -6 133 -9 40
-5 63 -2 93 12 39 17 42 17 75 -1 48 -26 104 -90 104 -119 0 -45 -12 -57 -114
-107 l-101 -51 -84 7 c-52 4 -99 14 -122 26 -56 28 -215 28 -252 -1 -20 -16
-40 -20 -104 -20 -89 0 -148 -14 -157 -36 -8 -21 18 -80 42 -93 35 -18 350
-14 411 5 44 15 58 15 108 4 32 -7 92 -16 133 -20 41 -5 82 -11 92 -15 19 -8
42 -59 35 -79 -9 -22 -89 -72 -153 -94 -32 -11 -77 -27 -99 -36 -50 -19 -243
-21 -346 -4 -65 11 -74 11 -107 -7 -53 -29 -53 -59 -2 -134 48 -71 62 -76 164
-67 61 5 74 10 93 33 26 31 77 35 115 9 28 -20 65 -20 111 -1 50 21 94 19 133
-6 51 -31 102 -23 131 21 42 66 48 72 65 65 9 -4 22 -21 28 -38 17 -49 49 -76
118 -97 35 -11 73 -27 85 -35 27 -19 51 -19 66 -1 13 16 -1 31 -34 38 -29 5
-49 55 -50 125 0 54 -4 66 -28 91 -15 15 -27 34 -27 42 0 7 -12 33 -26 58 -47
80 -61 202 -23 202 5 0 17 16 25 36 13 30 13 47 3 109 l-13 74 37 59 c44 71
46 95 10 128 -32 29 -39 31 -172 39 -76 4 -115 12 -145 27 -35 17 -57 20 -147
19 -130 -3 -138 3 -121 82 7 29 13 61 14 72 5 29 46 46 96 39 36 -5 49 -2 74
16 35 26 133 36 211 21 40 -7 51 -6 72 11 13 10 30 38 36 61 6 23 19 51 29 62
21 23 39 91 40 148 0 39 -27 104 -53 126 -11 9 -14 26 -10 71 7 76 -5 96 -87
139 -35 19 -80 49 -100 67 -37 34 -74 42 -110 26z"/>
<path d="M2364 3055 c-3 -13 -2 -37 3 -52 7 -22 17 -29 42 -31 35 -4 61 12 61
35 0 19 -60 73 -82 73 -10 0 -20 -10 -24 -25z"/>
<path d="M2994 1759 c-8 -14 11 -33 25 -25 6 4 11 14 11 22 0 16 -26 19 -36 3z"/>
<path d="M3202 1706 c-41 -29 -61 -55 -62 -80 0 -26 37 -84 58 -90 9 -3 134
-8 277 -11 249 -6 262 -6 285 13 22 18 23 22 12 60 -21 68 -27 70 -292 92 -63
5 -135 17 -159 25 -59 20 -80 18 -119 -9z"/>
<path d="M3116 1394 c-9 -8 -16 -26 -16 -38 0 -43 29 -121 59 -156 25 -31 35
-35 82 -38 140 -8 156 -7 201 23 40 27 48 28 138 27 52 -2 114 -5 137 -8 54
-8 83 18 83 75 0 33 -7 46 -42 80 -48 46 -68 50 -108 21 -22 -16 -37 -18 -81
-13 -30 3 -67 12 -83 20 -34 17 -154 9 -198 -13 -39 -20 -65 -17 -114 11 -39
23 -44 24 -58 9z"/>
<path d="M3856 1324 c-24 -23 -21 -89 6 -116 l21 -21 19 23 c22 27 23 78 2
108 -18 26 -27 27 -48 6z"/>
</g>
</svg>
